SplineFontDB: 3.2
FontName: TapeIt-Regular
FullName: TapeIt Regular
FamilyName: TapeIt
Weight: Regular
Copyright: Copyright (c) 2024, Zamero Type
UComments: "2024-5-27: Created with FontForge (http://fontforge.org)"
Version: 001.000
ItalicAngle: 0
UnderlinePosition: -100
UnderlineWidth: 50
Ascent: 800
Descent: 200
InvalidEm: 0
LayerCount: 2
Layer: 0 0 "Back" 1
Layer: 1 0 "Fore" 0
XUID: [1021 474 1118879153 12724]
StyleMap: 0x0000
FSType: 0
OS2Version: 0
OS2_WeightWidthSlopeOnly: 0
OS2_UseTypoMetrics: 1
CreationTime: 1716784568
ModificationTime: 1722096739
PfmFamily: 17
TTFWeight: 400
TTFWidth: 5
LineGap: 90
VLineGap: 90
OS2TypoAscent: 0
OS2TypoAOffset: 1
OS2TypoDescent: 0
OS2TypoDOffset: 1
OS2TypoLinegap: 90
OS2WinAscent: 0
OS2WinAOffset: 1
OS2WinDescent: 0
OS2WinDOffset: 1
HheadAscent: 0
HheadAOffset: 1
HheadDescent: 0
HheadDOffset: 1
OS2Vendor: 'PfEd'
Lookup: 258 0 0 "'kern' Horizontal Kerning in Latin lookup 0" { "'kern' Horizontal Kerning in Latin lookup 0-1" [150,15,2] } ['kern' ('DFLT' <'dflt' > 'latn' <'dflt' > ) ]
MarkAttachClasses: 1
DEI: 91125

StartChar: I
Encoding: 73 73 0
Width: 216
Flags: W
HStem: 0 21G<40 176> 711.008 20G<40 176>
VStem: 40 136<0 731.008>
LayerCount: 2
Fore
SplineSet
40 0 m 5
 40 731.0078125 l 5
 176 731.0078125 l 5
 176 0 l 5
 40 0 l 5
EndSplineSet
EndChar

StartChar: O
Encoding: 79 79 1
Width: 559
Flags: W
HStem: -4.91797 21G<93.45 454.452> 63.8438 63.668<388.592 451.706> 86.8223 33.1777<91.1436 168.917> 603.594 67.5703<367.778 452.452> 716 20G<93.7827 454.706>
VStem: 91.1436 77.7734<86.8223 120> 91.8896 86.3975<611.082 654.439> 367.778 84.6738<603.594 666.418>
LayerCount: 2
Fore
SplineSet
94.1435546875 736 m 5x9b
 454.706054688 728.51171875 l 5
 452.452148438 603.59375 l 5
 91.8896484375 611.08203125 l 5
 94.1435546875 736 l 5x9b
454.452148438 2.59375 m 5
 93.8896484375 -4.91796875 l 5
 91.1435546875 120 l 5xbd
 451.706054688 127.51171875 l 5xdd
 454.452148438 2.59375 l 5
388.591796875 63.84375 m 5xd9
 367.778320312 666.41796875 l 5
 503.6953125 671.1640625 l 5
 524.508789062 68.58984375 l 5
 388.591796875 63.84375 l 5xd9
35 88.568359375 m 5
 44.3701171875 656.185546875 l 5
 178.287109375 654.439453125 l 5xbb
 168.916992188 86.822265625 l 5xbd
 35 88.568359375 l 5
EndSplineSet
EndChar

StartChar: Q
Encoding: 81 81 2
Width: 662
Flags: W
HStem: 59.918 67.5703<100.057 184.73> 103.896 16.1035<381.222 518.139> 603.57 55.668<107.803 170.917> 611.082 40.1777<390.592 468.365> 716 20G<105.057 466.059>
VStem: 97.8027 86.9277<62.6641 127.488> 381.222 136.917<106.643 510.756> 390.592 77.7734<611.082 651.26>
LayerCount: 2
Fore
SplineSet
635.365234375 -4.91796875 m 1x4c
 97.802734375 2.5703125 l 1
 100.056640625 127.48828125 l 1x8c
 637.619140625 120 l 1
 635.365234375 -4.91796875 l 1x4c
105.056640625 728.48828125 m 5
 465.619140625 736 l 5
 468.365234375 611.08203125 l 5x1d
 107.802734375 603.5703125 l 5x2d
 105.056640625 728.48828125 l 5
48.8134765625 59.91796875 m 1xac
 35 656.4921875 l 1
 170.916992188 659.23828125 l 1
 184.73046875 62.6640625 l 1
 48.8134765625 59.91796875 l 1xac
381.221679688 106.642578125 m 1x5e
 390.591796875 651.259765625 l 1x5d
 527.508789062 648.513671875 l 1
 518.138671875 103.896484375 l 1
 381.221679688 106.642578125 l 1x5e
EndSplineSet
EndChar

StartChar: L
Encoding: 76 76 3
Width: 470
Flags: W
HStem: -5 128<175.544 442.008> 3 123.878<175.544 391.132> 711.008 20G<53.478 190>
VStem: 35 140.544<126.878 271.213> 54 136<462.794 727.008>
LayerCount: 2
Fore
SplineSet
35 3 m 1x70
 54 731.0078125 l 1
 190 727.0078125 l 1x68
 175.543945312 126.877929688 l 1x70
 445.0078125 123 l 1
 442.0078125 -5 l 1xb0
 35 3 l 1x70
EndSplineSet
EndChar

StartChar: F
Encoding: 70 70 4
Width: 478
Flags: W
HStem: 283.275 119.964<88.0527 392.951> 608.13 122.878<169.544 453.008>
VStem: 35 134.544<363.504 608.13> 49 129.182<-2.56305 363.504>
LayerCount: 2
Fore
SplineSet
88.052734375 283.275390625 m 5xc0
 87.41015625 403.239257812 l 5
 392.951171875 406.724609375 l 5
 395.140625 286.692382812 l 5
 88.052734375 283.275390625 l 5xc0
35 731.0078125 m 1xe0
 454.0078125 727.0078125 l 1
 453.0078125 604.0078125 l 1
 169.543945312 608.129882812 l 1xe0
 178.182244762 -2.5630461685 l 1
 49 -4 l 1xd0
 35 731.0078125 l 1xe0
EndSplineSet
EndChar

StartChar: E
Encoding: 69 69 5
Width: 482
Flags: W
HStem: -4.58301 122.032<171.751 446.088> 4 120.27<171.751 370.269> 299 124<98.876 385.008> 307 123.878<62.5439 344.132> 599.13 123.878<179.544 404.132> 603.008 128<179.544 455.008>
VStem: 35 136.751<124.27 391.158> 48 131.544<335.85 599.13>
LayerCount: 2
Fore
SplineSet
58 307 m 5x10
 62.5439453125 430.877929688 l 5x10
 388.0078125 423 l 5
 385.0078125 299 l 5x20
 58 307 l 5x10
48 723.0078125 m 1x49
 455.0078125 731.0078125 l 1
 458.0078125 603.0078125 l 1x05
 179.543945312 599.129882812 l 1x09
 171.750976562 124.26953125 l 1x4a
 448.8984375 117.44921875 l 1
 446.087890625 -4.5830078125 l 1x82
 35 4 l 1x42
 48 723.0078125 l 1x49
EndSplineSet
EndChar

StartChar: C
Encoding: 67 67 6
Width: 473
Flags: W
HStem: -2.91797 124.918<158.129 444.973> 65.2314 65.2568<96.6641 170.93> 603.57 55.3535<104.41 177.945> 611.082 124.918<127.883 446.227>
VStem: 104.41 73.5352<603.57 656.925>
LayerCount: 2
Fore
SplineSet
444.97265625 -2.91796875 m 5x88
 94.41015625 5.5703125 l 5
 96.6640625 130.48828125 l 5x48
 447.2265625 122 l 5
 444.97265625 -2.91796875 l 5x88
101.6640625 728.48828125 m 5
 446.2265625 736 l 5
 448.97265625 611.08203125 l 5x18
 104.41015625 603.5703125 l 5x28
 101.6640625 728.48828125 l 5
35 65.2314453125 m 5x68
 42.015625 658.923828125 l 5
 177.9453125 656.924804688 l 5
 170.9296875 63.232421875 l 5
 35 65.2314453125 l 5x68
EndSplineSet
EndChar

StartChar: D
Encoding: 68 68 7
Width: 602
Flags: W
HStem: -4.91797 124.918<26.7461 113.856 247.773 431.448> 54.8438 70.668<431.448 495.562> 86.8223 33.1777<113.856 247.773> 607.594 51.5703<417.635 497.309> 611.082 124.918<27 123.227 257.144 417.635>
VStem: 113.856 133.917<88.5684 510.864> 123.227 133.917<232.144 654.439> 417.635 79.6738<607.594 657.418>
LayerCount: 2
Fore
SplineSet
27 736 m 5x09
 497.5625 732.51171875 l 5
 497.30859375 607.59375 l 5x11
 26.74609375 611.08203125 l 5
 27 736 l 5x09
497.30859375 0.59375 m 5
 26.74609375 -4.91796875 l 5x81
 25 120 l 5x21
 495.5625 125.51171875 l 5x41
 497.30859375 0.59375 l 5
431.448242188 54.84375 m 5x51
 417.634765625 657.41796875 l 5
 553.551757812 659.1640625 l 5
 567.365234375 56.58984375 l 5
 431.448242188 54.84375 l 5x51
113.856445312 88.568359375 m 5x25
 123.2265625 656.185546875 l 5
 257.143554688 654.439453125 l 5x23
 247.7734375 86.822265625 l 5
 113.856445312 88.568359375 l 5x25
EndSplineSet
EndChar

StartChar: G
Encoding: 71 71 8
Width: 553
Flags: W
HStem: 6.08203 124.918<200.374 454.619> 603.082 124.918<170.917 473.365> 608.57 58.668<102.803 170.917>
VStem: 102.803 68.1143<608.57 667.238> 104.057 87.6738<64.6641 121.488> 369.222 89.1436<6.08203 131> 382.083 135.917<146.592 389>
LayerCount: 2
Fore
SplineSet
458.365234375 6.08203125 m 5x8c
 107.802734375 -3.4296875 l 5
 104.056640625 121.48828125 l 5
 454.619140625 131 l 5
 458.365234375 6.08203125 l 5x8c
105.056640625 733.48828125 m 5
 475.619140625 728 l 5
 473.365234375 603.08203125 l 5xd0
 102.802734375 608.5703125 l 5xb0
 105.056640625 733.48828125 l 5
170.916992188 667.23828125 m 5xb0
 191.73046875 64.6640625 l 5xa8
 55.8134765625 59.91796875 l 5
 35 662.4921875 l 5
 170.916992188 667.23828125 l 5xb0
518 389 m 1x82
 505.138671875 -65.103515625 l 1
 369.221679688 -60.357421875 l 1x84
 382.083007812 393.74609375 l 1
 518 389 l 1x82
EndSplineSet
EndChar

StartChar: H
Encoding: 72 72 9
Width: 559
Flags: W
HStem: 280.082 124.918<93.8896 427.144> 287.594 124.918<118.452 451.706> 715.186 20G<42.2245 176.287>
VStem: 37 133.917<-2.43164 280.082 405 733.439> 91.1436 85.1436<280.082 405> 369.778 135.917<428.749 725.418>
LayerCount: 2
Fore
SplineSet
454.452148438 287.59375 m 5x6c
 93.8896484375 280.08203125 l 5
 91.1435546875 405 l 5xac
 451.706054688 412.51171875 l 5
 454.452148438 287.59375 l 5x6c
386.591796875 3.84375 m 1
 369.778320312 725.41796875 l 1
 505.6953125 729.1640625 l 1
 522.508789062 7.58984375 l 1
 386.591796875 3.84375 l 1
37 -2.431640625 m 1x34
 42.3701171875 735.185546875 l 1
 176.287109375 733.439453125 l 1x2c
 170.916992188 -4.177734375 l 1
 37 -2.431640625 l 1x34
EndSplineSet
EndChar

StartChar: J
Encoding: 74 74 10
Width: 426
Flags: W
HStem: -3 121.964<25.6426 252.643> 67.5684 54.8809<252.643 320.541> 620.439 119.878<53.4658 257.204>
VStem: 257.204 134.726<122.449 616.151>
LayerCount: 2
Fore
SplineSet
25.642578125 -3 m 1xb0
 25 118.963867188 l 1xb0
 320.541015625 122.44921875 l 1x70
 322.73046875 0.4169921875 l 1
 25.642578125 -3 l 1xb0
48.921875 620.439453125 m 1
 53.4658203125 740.317382812 l 1
 391.9296875 733.439453125 l 1
 386.559570312 65.822265625 l 1
 252.642578125 67.568359375 l 1x70
 257.204101562 616.151367188 l 1
 48.921875 620.439453125 l 1
EndSplineSet
EndChar

StartChar: V
Encoding: 86 86 11
Width: 550
Flags: W
HStem: 0 21G<149.197 410.142> 720.413 20G<10 143.708 402.999 540.338>
LayerCount: 2
Fore
SplineSet
153.168945312 0 m 1
 150.168945312 134 l 1
 409.426757812 134 l 1
 406.426757812 0 l 1
 153.168945312 0 l 1
406.426757812 0 m 1
 279.62890625 23.5146484375 l 1
 406.540039062 740.413085938 l 1
 540.337890625 720.8984375 l 1
 406.426757812 0 l 1
153.168945312 0 m 5
 10 720.8984375 l 5
 139.797851562 740.413085938 l 5
 279.966796875 23.5146484375 l 5
 153.168945312 0 l 5
EndSplineSet
EndChar

StartChar: P
Encoding: 80 80 12
Width: 538
Flags: W
HStem: 0 21G<40 176> 235.082 124.918<93.8896 402.915> 303.844 63.668<367.592 425.706> 606.09 124.918<93 356.778>
VStem: 40 136<0 235.082 360 606.09> 93 83<235.082 360 606.09 731.008> 356.778 78.9678<606.09 666.418>
LayerCount: 2
Fore
SplineSet
40 0 m 5x9a
 40 731.0078125 l 5x9a
 176 731.0078125 l 5x96
 176 0 l 5
 40 0 l 5x9a
93 731.0078125 m 1x96
 433 731.0078125 l 1
 435.74609375 606.08984375 l 1
 90.74609375 606.08984375 l 1
 93 731.0078125 l 1x96
428.452148438 242.59375 m 1
 93.8896484375 235.08203125 l 1
 91.1435546875 360 l 1xd2
 425.706054688 367.51171875 l 1xb2
 428.452148438 242.59375 l 1
367.591796875 303.84375 m 1xb2
 356.778320312 666.41796875 l 1
 492.6953125 669.1640625 l 1
 503.508789062 306.58984375 l 1
 367.591796875 303.84375 l 1xb2
EndSplineSet
EndChar

StartChar: N
Encoding: 78 78 13
Width: 562
Flags: W
VStem: 55.8135 132.917<-5.33594 239.661> 393.592 133.917<172.46 718.514>
LayerCount: 2
Fore
SplineSet
427 180 m 29
 384.221679688 -13.357421875 l 29
 105 582 l 29
 167.916992188 737.23828125 l 29
 427 180 l 29
167.916992188 737.23828125 m 1
 188.73046875 -5.3359375 l 1
 55.8134765625 -10.08203125 l 1
 35 732.4921875 l 1
 167.916992188 737.23828125 l 1
384.221679688 -13.357421875 m 1
 393.591796875 721.259765625 l 1
 527.508789062 718.513671875 l 1
 518.138671875 -16.103515625 l 1
 384.221679688 -13.357421875 l 1
EndSplineSet
EndChar

StartChar: U
Encoding: 85 85 14
Width: 566
Flags: W
HStem: 72.8965 59.1035<385.222 460.619> 710.26 20G<394.306 531.509>
VStem: 35 135.917<394.877 735.492> 102.803 81.9277<60.6641 125.488> 385.222 75.3975<75.6426 132> 394.592 136.917<241.224 727.514>
LayerCount: 2
Fore
SplineSet
463.365234375 2.08203125 m 1xd8
 102.802734375 -4.4296875 l 1
 100.056640625 125.48828125 l 5
 460.619140625 132 l 5
 463.365234375 2.08203125 l 1xd8
48.8134765625 57.91796875 m 5
 35 735.4921875 l 1
 170.916992188 738.23828125 l 1xe0
 184.73046875 60.6640625 l 5
 48.8134765625 57.91796875 l 5
385.221679688 75.642578125 m 5xc8
 394.591796875 730.259765625 l 1
 531.508789062 727.513671875 l 1xc4
 522.138671875 72.896484375 l 5
 385.221679688 75.642578125 l 5xc8
EndSplineSet
EndChar

StartChar: R
Encoding: 82 82 15
Width: 535
Flags: W
HStem: 0 21G<40 176> 272.594 124.918<221.807 368.452> 285.082 124.918<101.144 247.789> 606.09 124.918<93 367.778>
VStem: 40 136<0 285.082 410 606.09> 90.7461 85.2539<606.09 731.008> 367.778 67.9678<606.09 673.418>
LayerCount: 2
Fore
SplineSet
396 -17 m 1x92
 247.202148438 309.485351562 l 1
 369 359 l 1
 519.797851562 36.5146484375 l 1
 396 -17 l 1x92
40 0 m 1x9a
 40 731.0078125 l 1x9a
 176 731.0078125 l 1x96
 176 0 l 1
 40 0 l 1x9a
93 731.0078125 m 1
 433 731.0078125 l 1
 435.74609375 606.08984375 l 1
 90.74609375 606.08984375 l 1x96
 93 731.0078125 l 1
368.452148438 272.59375 m 5xd2
 93.8896484375 285.08203125 l 5
 101.143554688 410 l 5xb2
 375.706054688 397.51171875 l 5
 368.452148438 272.59375 l 5xd2
357.591796875 301.84375 m 1
 367.778320312 673.41796875 l 1
 503.6953125 669.1640625 l 1
 493.508789062 297.58984375 l 1
 357.591796875 301.84375 l 1
EndSplineSet
EndChar

StartChar: S
Encoding: 83 83 16
Width: 529
Flags: W
HStem: -4.91797 124.918<76.874 400.809> 59.6797 67.832<359.881 424.69> 300.082 65.1719<350.067 417.957> 368.231 65.2568<99.6484 178.914> 603.57 57.3545<107.395 170.93> 611.082 124.918<130.867 449.211>
VStem: 99.6484 79.2656<370.232 433.488> 350.067 70.1436<300.082 365.254>
LayerCount: 2
Fore
SplineSet
427.436523438 2.59375 m 1x73
 76.8740234375 -4.91796875 l 1
 74.1279296875 120 l 1xb3
 424.690429688 127.51171875 l 1
 427.436523438 2.59375 l 1x73
485.984375 368 m 1
 495.797851562 62.42578125 l 1
 359.880859375 59.6796875 l 1x73
 350.067382812 365.25390625 l 1
 485.984375 368 l 1
417.95703125 300.08203125 m 1
 97.39453125 308.5703125 l 1
 99.6484375 433.48828125 l 1
 420.2109375 425 l 1
 417.95703125 300.08203125 l 1
104.6484375 728.48828125 m 5
 449.2109375 736 l 5
 451.95703125 611.08203125 l 5x37
 107.39453125 603.5703125 l 5x3b
 104.6484375 728.48828125 l 5
42.984375 368.231445312 m 1
 35 658.923828125 l 1
 170.9296875 660.924804688 l 1x3b
 178.9140625 370.232421875 l 1
 42.984375 368.231445312 l 1
EndSplineSet
EndChar

StartChar: B
Encoding: 66 66 17
Width: 536
Flags: W
HStem: -4.58301 21G<35 420.549> 4 120.27<171.751 349.064> 295.275 119.964<88.0527 364> 390 28.7246<364 447.951> 599.13 123.878<171.544 380.132> 711.008 20G<38 429.477>
VStem: 35 136.751<124.27 295.275 415.239 599.13> 87.4102 84.1338<295.275 415.239> 364 68.0078<603.008 651.008> 364.222 55.8662<46.6426 117.449>
LayerCount: 2
Fore
SplineSet
364.221679688 46.642578125 m 1x0040
 364.591796875 321.259765625 l 1
 501.508789062 318.513671875 l 1
 501.138671875 43.896484375 l 1
 364.221679688 46.642578125 l 1x0040
364 390 m 1x1080
 364 651.0078125 l 1
 500 651.0078125 l 1
 500 390 l 1
 364 390 l 1x1080
88.052734375 295.275390625 m 5x21
 87.41015625 415.239257812 l 5x21
 447.951171875 418.724609375 l 5x11
 450.140625 298.692382812 l 5
 88.052734375 295.275390625 l 5x21
38 723.0078125 m 1x4a40
 429.0078125 731.0078125 l 1x0640
 432.0078125 603.0078125 l 1
 171.543945312 599.129882812 l 1x0980
 171.750976562 124.26953125 l 1x4a
 422.8984375 117.44921875 l 1
 420.087890625 -4.5830078125 l 1x8240
 35 4 l 1
 38 723.0078125 l 1x4a40
EndSplineSet
EndChar

StartChar: T
Encoding: 84 84 18
Width: 497
Flags: W
HStem: 0 21G<180.352 316.352> 603.57 124.918<27.7461 439.278>
VStem: 180.352 136<0 711.008>
LayerCount: 2
Fore
SplineSet
25 728.48828125 m 1
 469.5625 736 l 1
 472.30859375 611.08203125 l 1
 27.74609375 603.5703125 l 1
 25 728.48828125 l 1
180.3515625 0 m 1
 180.3515625 711.0078125 l 1
 316.3515625 711.0078125 l 1
 316.3515625 0 l 1
 180.3515625 0 l 1
EndSplineSet
EndChar

StartChar: W
Encoding: 87 87 19
Width: 878
Flags: W
HStem: 0 21G<149.197 400.441 489.525 738.142> 720.413 20G<10 143.708 730.999 868.338>
LayerCount: 2
Fore
SplineSet
496.177734375 497 m 5
 396.426757812 0 l 1
 279.62890625 23.5146484375 l 1
 391.931640625 636 l 1
 496.177734375 497 l 5
493.168945312 0 m 1
 490.168945312 134 l 1
 737.426757812 134 l 1
 734.426757812 0 l 1
 493.168945312 0 l 1
734.426757812 0 m 1
 607.62890625 23.5146484375 l 1
 734.540039062 740.413085938 l 1
 868.337890625 720.8984375 l 1
 734.426757812 0 l 1
493.168945312 0 m 1
 360 730.8984375 l 1
 485.797851562 748.413085938 l 1
 605.966796875 23.5146484375 l 1
 493.168945312 0 l 1
153.168945312 0 m 1
 150.168945312 134 l 1
 399.426757812 134 l 1
 396.426757812 0 l 1
 153.168945312 0 l 1
153.168945312 0 m 1
 10 720.8984375 l 1
 139.797851562 740.413085938 l 1
 279.966796875 23.5146484375 l 1
 153.168945312 0 l 1
EndSplineSet
EndChar

StartChar: K
Encoding: 75 75 20
Width: 541
Flags: W
HStem: 0 21G<40 176> 711.008 20G<40 176>
VStem: 40 136<0 192 329.485 731.008>
LayerCount: 2
Fore
SplineSet
60.580078125 285.181640625 m 1
 413.282226562 738.536132812 l 1
 514.702148438 659.354492188 l 1
 152 192 l 1
 60.580078125 285.181640625 l 1
416 -17 m 1
 177.202148438 329.485351562 l 1
 291 398 l 1
 531.797851562 55.5146484375 l 1
 416 -17 l 1
40 0 m 5
 40 731.0078125 l 5
 176 731.0078125 l 5
 176 0 l 5
 40 0 l 5
EndSplineSet
EndChar

StartChar: X
Encoding: 88 88 21
Width: 524
Flags: W
LayerCount: 2
Fore
SplineSet
135.797851562 -17 m 1
 10 45.5146484375 l 1
 225.064453125 430 l 1
 390.797851562 744 l 1
 514.595703125 685.485351562 l 1
 311.045898438 318 l 1
 135.797851562 -17 l 1
388.797851562 -17 m 1
 227.86328125 300 l 1
 10 685.485351562 l 1
 133.797851562 744 l 1
 293.892578125 432 l 1
 514.595703125 45.5146484375 l 1
 388.797851562 -17 l 1
EndSplineSet
EndChar

StartChar: Z
Encoding: 90 90 22
Width: 520
Flags: W
HStem: -2.0957 124.938<102.335 484.55> 611.222 124.938<57.3711 471.861>
LayerCount: 2
Fore
SplineSet
35.6142578125 131.059570312 m 5
 363.321289062 643.911132812 l 5
 490.321289062 603.911132812 l 5
 169.614257812 101.059570312 l 5
 35.6142578125 131.059570312 l 5
484.549804688 -2.095703125 m 5
 34 6.1220703125 l 5
 35.6142578125 131.059570312 l 5
 486.165039062 122.842773438 l 5
 484.549804688 -2.095703125 l 5
57.37109375 736.159179688 m 5
 491.936523438 728.849609375 l 5
 490.321289062 603.911132812 l 5
 55.755859375 611.221679688 l 5
 57.37109375 736.159179688 l 5
EndSplineSet
EndChar

StartChar: A
Encoding: 65 65 23
Width: 550
Flags: W
HStem: 173.57 124.918<109.41 427.754> 181.082 124.918<132.883 451.227> 711.008 20G<140.196 401.141>
LayerCount: 2
Fore
SplineSet
106.6640625 298.48828125 m 5xa0
 451.2265625 306 l 5
 453.97265625 181.08203125 l 5x60
 109.41015625 173.5703125 l 5
 106.6640625 298.48828125 l 5xa0
397.168945312 731.0078125 m 1
 400.168945312 597.0078125 l 1
 140.911132812 597.0078125 l 1
 143.911132812 731.0078125 l 1
 397.168945312 731.0078125 l 1
143.911132812 731.0078125 m 1
 270.708984375 707.493164062 l 1
 143.797851562 -9.4052734375 l 1
 10 10.109375 l 1
 143.911132812 731.0078125 l 1
397.168945312 731.0078125 m 1
 540.337890625 10.109375 l 1
 410.540039062 -9.4052734375 l 1
 270.37109375 707.493164062 l 1
 397.168945312 731.0078125 l 1
EndSplineSet
EndChar

StartChar: i
Encoding: 105 105 24
Width: 206
Flags: W
HStem: 0 21G<40 166> 599.994 141.008<38 168>
VStem: 40 126<0 521.008 599.994 741.002>
LayerCount: 2
Fore
SplineSet
38 599.994140625 m 5
 38 741.001953125 l 5
 168 741.001953125 l 5
 168 599.994140625 l 5
 38 599.994140625 l 5
40 0 m 1
 40 521.0078125 l 1
 166 521.0078125 l 1
 166 0 l 1
 40 0 l 1
EndSplineSet
EndChar

StartChar: M
Encoding: 77 77 25
Width: 716
Flags: W
HStem: 0 21G<288.639 416.442>
VStem: 35 133.917<-2.43164 384.1> 547.083 133.917<-2.43164 197.687>
LayerCount: 2
Fore
SplineSet
315.221679688 106.357421875 m 29
 521.712890625 727.439453125 l 1
 584.629882812 542.201171875 l 1
 410 0 l 29
 315.221679688 106.357421875 l 29
681 -2.431640625 m 1
 547.083007812 -4.177734375 l 1
 521.712890625 727.439453125 l 1
 655.629882812 729.185546875 l 1
 681 -2.431640625 l 1
295 0 m 5
 295 135 l 5
 410 135 l 5
 410 0 l 5
 295 0 l 5
394.778320312 106.357421875 m 29
 295 0 l 29
 119.370117188 552.201171875 l 1
 182.287109375 737.439453125 l 1
 394.778320312 106.357421875 l 29
35 -2.431640625 m 1
 48.3701171875 739.185546875 l 1
 182.287109375 737.439453125 l 1
 168.916992188 -4.177734375 l 1
 35 -2.431640625 l 1
EndSplineSet
EndChar

StartChar: Y
Encoding: 89 89 26
Width: 530
Flags: W
HStem: 0 21G<195 331> 720.413 20G<80.4116 138.168 388.433 447.575>
VStem: 195 136<0 331.008>
LayerCount: 2
Fore
SplineSet
195 0 m 5
 195 331.0078125 l 5
 331 331.0078125 l 5
 331 0 l 5
 195 0 l 5
320.426757812 241 m 5
 203.62890625 264.514648438 l 5
 396.540039062 740.413085938 l 5
 520.337890625 691.8984375 l 5
 320.426757812 241 l 5
213 239 m 5
 10 691.8984375 l 1
 129.797851562 740.413085938 l 1
 329.797851562 262.514648438 l 5
 213 239 l 5
EndSplineSet
EndChar

StartChar: o
Encoding: 111 111 27
Width: 492
Flags: W
HStem: 59.918 55.5703<100.057 172.73 323.222 359.52> 405.57 43.668<107.803 158.917> 413.082 28.1777<332.592 398.365> 506 20G<105.057 396.106>
VStem: 100.057 72.6738<62.6641 115.488> 323.222 54.3975<56.6426 108> 332.592 65.7734<413.082 441.26>
LayerCount: 2
Fore
SplineSet
375.365234375 -4.91796875 m 1x9c
 97.802734375 2.5703125 l 1
 100.056640625 115.48828125 l 1
 377.619140625 108 l 1
 375.365234375 -4.91796875 l 1x9c
105.056640625 518.48828125 m 1
 395.619140625 526 l 1
 398.365234375 413.08203125 l 1xba
 107.802734375 405.5703125 l 1xda
 105.056640625 518.48828125 l 1
48.8134765625 59.91796875 m 1
 35 446.4921875 l 1
 158.916992188 449.23828125 l 1xd8
 172.73046875 62.6640625 l 1
 48.8134765625 59.91796875 l 1
323.221679688 56.642578125 m 1xbc
 332.591796875 441.259765625 l 1xba
 457.508789062 438.513671875 l 1
 448.138671875 53.896484375 l 1
 323.221679688 56.642578125 l 1xbc
EndSplineSet
EndChar

StartChar: p
Encoding: 112 112 28
Width: 499
Flags: W
HStem: -4.91797 116.918<95.2578 368.008> 63.8438 55.668<336.96 388.074> 503.139 20G<35 163.337 293.511 381.893>
VStem: 35 127.979<133.082 520.766> 47.7578 127.979<-187.758 199.926>
LayerCount: 2
Fore
SplineSet
47.7578125 -190.130859375 m 5x28
 35 520.765625 l 5
 162.978515625 523.138671875 l 5x30
 175.736328125 -187.7578125 l 5
 47.7578125 -190.130859375 l 5x28
86.3681640625 461.0078125 m 1
 376.368164062 531.0078125 l 1
 408.114257812 416.08984375 l 1
 113.114257812 346.08984375 l 1
 86.3681640625 461.0078125 l 1
389.8203125 2.59375 m 1
 95.2578125 -4.91796875 l 1
 93.51171875 112 l 1xa0
 388.07421875 119.51171875 l 1x60
 389.8203125 2.59375 l 1
336.959960938 63.84375 m 1x60
 326.146484375 466.41796875 l 1
 454.063476562 469.1640625 l 1
 464.876953125 66.58984375 l 1
 336.959960938 63.84375 l 1x60
EndSplineSet
EndChar

StartChar: d
Encoding: 100 100 29
Width: 494
Flags: W
HStem: 401.008 116.918<188.683 396.365> 410.496 55.668<111.803 162.917>
VStem: 111.803 51.1143<410.496 466.164> 326.898 127.979<-0.130859 65 179.918 401.008 517.926 739.139> 331.141 67.4785<401.008 517.926>
LayerCount: 2
Fore
SplineSet
459.119140625 739.138671875 m 5x28
 454.876953125 -1.7578125 l 5
 326.8984375 -0.130859375 l 5x30
 331.140625 740.765625 l 5
 459.119140625 739.138671875 l 5x28
403.508789062 65 m 5
 123.508789062 -5 l 1
 91.7626953125 109.91796875 l 1
 376.762695312 179.91796875 l 5
 403.508789062 65 l 5
114.056640625 527.4140625 m 1
 398.619140625 517.92578125 l 5
 396.365234375 401.0078125 l 5xa8
 111.802734375 410.49609375 l 1x68
 114.056640625 527.4140625 l 1
162.916992188 466.1640625 m 1x60
 173.73046875 59.58984375 l 1
 45.8134765625 56.84375 l 1
 35 463.41796875 l 1
 162.916992188 466.1640625 l 1x60
EndSplineSet
EndChar

StartChar: c
Encoding: 99 99 30
Width: 403
Flags: W
HStem: -2.91797 114.918<145.856 374.973> 65.2314 55.2568<96.6641 160.93> 404.57 43.3545<104.41 167.945> 412.082 114.918<123.114 376.227>
VStem: 104.41 63.5352<404.57 447.925>
LayerCount: 2
Fore
SplineSet
374.97265625 -2.91796875 m 1x88
 94.41015625 5.5703125 l 1
 96.6640625 120.48828125 l 1x48
 377.2265625 112 l 1
 374.97265625 -2.91796875 l 1x88
101.6640625 519.48828125 m 1
 376.2265625 527 l 1
 378.97265625 412.08203125 l 1x18
 104.41015625 404.5703125 l 1x28
 101.6640625 519.48828125 l 1
35 65.2314453125 m 1x68
 42.015625 449.923828125 l 1
 167.9453125 447.924804688 l 1
 160.9296875 63.232421875 l 1
 35 65.2314453125 l 1x68
EndSplineSet
EndChar

StartChar: b
Encoding: 98 98 31
Width: 499
Flags: W
HStem: -2.91797 116.918<95.2578 336.96> 60.8438 55.668<336.96 389.074> 712.139 20G<35 163.326>
VStem: 35 127.979<329.462 729.766> 95.2578 80.4785<-1.75781 114>
LayerCount: 2
Fore
SplineSet
47.7578125 -4.130859375 m 1x28
 35 729.765625 l 1
 162.978515625 732.138671875 l 1x30
 175.736328125 -1.7578125 l 1
 47.7578125 -4.130859375 l 1x28
86.3681640625 461.0078125 m 5
 385.368164062 531.0078125 l 5
 417.114257812 416.08984375 l 5
 113.114257812 346.08984375 l 5
 86.3681640625 461.0078125 l 5
389.8203125 -0.40625 m 1
 95.2578125 -2.91796875 l 1
 94.51171875 114 l 1xa8
 389.07421875 116.51171875 l 1x68
 389.8203125 -0.40625 l 1
336.959960938 60.84375 m 1x60
 335.146484375 466.41796875 l 1
 463.063476562 466.1640625 l 1
 464.876953125 60.58984375 l 1
 336.959960938 60.84375 l 1x60
EndSplineSet
EndChar

StartChar: e
Encoding: 101 101 32
Width: 469
Flags: W
HStem: -3.91797 114.918<171.73 398.365> 198.57 102.918<94.4102 330.749> 206.082 102.918<116.991 348.227> 403.082 46.8418<102.803 121.091 314.016 375.365> 408.57 48.668<102.803 160.917>
VStem: 100.057 71.6738<64.6641 113.488> 102.803 58.1143<408.57 457.238>
LayerCount: 2
Fore
SplineSet
91.6640625 301.48828125 m 1xc0
 348.2265625 309 l 1
 350.97265625 206.08203125 l 1xa0
 94.41015625 198.5703125 l 1
 91.6640625 301.48828125 l 1xc0
309 206.231445312 m 1
 314.015625 449.923828125 l 1x90
 439.9453125 447.924804688 l 1
 434.9296875 204.232421875 l 1
 309 206.231445312 l 1
398.365234375 -3.91796875 m 1
 97.802734375 -1.4296875 l 1
 100.056640625 113.48828125 l 1x84
 400.619140625 111 l 1
 398.365234375 -3.91796875 l 1
105.056640625 523.48828125 m 1
 377.619140625 518 l 1
 375.365234375 403.08203125 l 1x92
 102.802734375 408.5703125 l 1x8a
 105.056640625 523.48828125 l 1
160.916992188 457.23828125 m 1x8a
 171.73046875 64.6640625 l 1x8c
 45.8134765625 59.91796875 l 1
 35 452.4921875 l 1
 160.916992188 457.23828125 l 1x8a
EndSplineSet
EndChar

StartChar: l
Encoding: 108 108 33
Width: 206
Flags: W
HStem: 0 21G<40 166> 721.008 20G<40 166>
VStem: 40 126<0 741.008>
LayerCount: 2
Fore
SplineSet
40 0 m 1
 40 741.0078125 l 1
 166 741.0078125 l 1
 166 0 l 1
 40 0 l 1
EndSplineSet
EndChar

StartChar: s
Encoding: 115 115 34
Width: 444
Flags: W
HStem: 0 116<58.9922 278> 57.9922 58.0078<278 350> 199.082 71.918<278 334.973> 268.231 54.2568<96.6641 160.93> 402.57 41.3545<104.41 167.945> 410.082 114.918<123.114 376.227>
VStem: 104.41 63.5352<402.57 443.925> 278 72<57.9922 116> 278 59.2266<199.082 271>
LayerCount: 2
Fore
SplineSet
350 0 m 5x83
 58.9921875 0 l 5
 58.9921875 116 l 5x83
 350 116 l 5x43
 350 0 l 5x83
278 57.9921875 m 5x63
 278 271 l 5x6280
 404 271 l 5
 404 57.9921875 l 5
 278 57.9921875 l 5x63
334.97265625 199.08203125 m 5
 94.41015625 207.5703125 l 5
 96.6640625 322.48828125 l 5x1280
 337.2265625 314 l 5
 334.97265625 199.08203125 l 5
101.6640625 517.48828125 m 5
 376.2265625 525 l 5
 378.97265625 410.08203125 l 5x06
 104.41015625 402.5703125 l 5x0a
 101.6640625 517.48828125 l 5
35 268.231445312 m 5x1a
 42.015625 448.923828125 l 5
 167.9453125 443.924804688 l 5
 160.9296875 263.232421875 l 5
 35 268.231445312 l 5x1a
EndSplineSet
EndChar

StartChar: f
Encoding: 102 102 35
Width: 355
Flags: W
HStem: 0 21G<79.9863 205.986> 409.183 107.929<82.0843 336.818> 417.889 107.779<23.7051 274.734> 630.275 55.7324<128.039 205.986> 633.692 110.032<205.986 357.938>
VStem: 79.9863 126<0 630.275> 128.039 77.9473<630.275 686.008>
LayerCount: 2
Fore
SplineSet
20 417.888671875 m 1xa0
 23.705078125 525.66796875 l 1xa0
 338.982421875 517.111328125 l 1
 336.818359375 409.182617188 l 1xc0
 20 417.888671875 l 1xa0
128.0390625 630.275390625 m 1x92
 127.396484375 740.239257812 l 1
 357.9375 743.724609375 l 1
 360.126953125 633.692382812 l 1x8a
 128.0390625 630.275390625 l 1x92
79.986328125 0 m 1x94
 79.986328125 686.0078125 l 1x94
 205.986328125 686.0078125 l 1x92
 205.986328125 0 l 1
 79.986328125 0 l 1x94
EndSplineSet
EndChar

StartChar: a
Encoding: 97 97 36
Width: 495
Flags: W
HStem: 220.89 70.0107<89.8457 154.468> 231.272 110.786<195.828 411.241> 412.53 52.3271<290.106 350.115> 423.234 109.767<100.776 262.055>
VStem: 290.106 60.0088<412.53 464.857>
LayerCount: 2
Fore
SplineSet
95.638671875 423.234375 m 1x18
 100.776367188 533.000976562 l 1x18
 355.252929688 522.296875 l 1
 350.115234375 412.530273438 l 1x28
 95.638671875 423.234375 l 1x18
299.569335938 55.451171875 m 1
 290.106445312 464.857421875 l 1x28
 412.861328125 467.249023438 l 1
 422.323242188 57.841796875 l 1
 299.569335938 55.451171875 l 1
89.845703125 220.889648438 m 1x88
 85.9501953125 331.676757812 l 1
 411.241210938 342.05859375 l 1
 415.135742188 231.272460938 l 1x48
 89.845703125 220.889648438 l 1x88
37.9384765625 32.041015625 m 1
 35 290.900390625 l 1x88
 154.467773438 292.143554688 l 1
 157.407226562 33.283203125 l 1
 37.9384765625 32.041015625 l 1
106.9375 -9.6884765625 m 1
 100.526367188 99.5107421875 l 1
 376.66796875 115.416992188 l 1
 383.078125 6.2177734375 l 1
 106.9375 -9.6884765625 l 1
325.6640625 14.8369140625 m 5
 344.078125 114.908203125 l 5
 490.815429688 87.0712890625 l 5
 472.401367188 -13 l 5
 325.6640625 14.8369140625 l 5
EndSplineSet
EndChar

StartChar: g
Encoding: 103 103 37
Width: 494
Flags: W
HStem: -175.878 115.938<76.6143 338.53> -131.131 62.9736<334.898 387.165> 404.093 116.918<323.141 441.746>
VStem: 111.803 57.5234<410.496 464.009> 323.141 120.859<404.093 515.766> 334.898 49.6514<-131.131 -68.1572>
LayerCount: 2
Fore
SplineSet
384.549804688 -184.095703125 m 1x74
 74 -175.877929688 l 1
 76.6142578125 -59.9404296875 l 1xb4
 387.165039062 -68.1572265625 l 1
 384.549804688 -184.095703125 l 1x74
451.119140625 522.138671875 m 1
 462.876953125 -132.7578125 l 1
 334.8984375 -131.130859375 l 1x74
 323.140625 515.765625 l 1x78
 451.119140625 522.138671875 l 1
400.965820312 86.5 m 5
 115.9296875 41.169921875 l 5
 94.3212890625 158.41796875 l 5
 384.336914062 203.3125 l 5
 400.965820312 86.5 l 5
114.056640625 527.4140625 m 1
 444 521.010742188 l 1x38
 441.74609375 404.092773438 l 1
 111.802734375 410.49609375 l 1
 114.056640625 527.4140625 l 1
169.326171875 464.008789062 m 1
 167.33984375 97.2802734375 l 1
 39.404296875 98.9990234375 l 1
 41.390625 465.727539062 l 1
 169.326171875 464.008789062 l 1
EndSplineSet
EndChar

StartChar: h
Encoding: 104 104 38
Width: 496
Flags: W
HStem: -0.103516 21G<325.222 452.539>
VStem: 35 125.917<364.924 739.492> 48.8135 125.917<-2.33594 372.232> 325.222 126.917<2.64258 349.233>
LayerCount: 2
Fore
SplineSet
405.365234375 412.08203125 m 5x90
 114.802734375 365.5703125 l 1
 100.056640625 485.48828125 l 1
 390.619140625 532 l 5
 405.365234375 412.08203125 l 5x90
48.8134765625 -5.08203125 m 1xb0
 35 739.4921875 l 1
 160.916992188 742.23828125 l 1xd0
 174.73046875 -2.3359375 l 1
 48.8134765625 -5.08203125 l 1xb0
325.221679688 2.642578125 m 5
 334.591796875 470.259765625 l 5
 461.508789062 467.513671875 l 5
 452.138671875 -0.103515625 l 5
 325.221679688 2.642578125 l 5
EndSplineSet
EndChar

StartChar: j
Encoding: 106 106 39
Width: 206
Flags: W
HStem: -180.893 114.921<-113.966 38> -112.992 51.8867<38 106.72> 599.994 141.008<39.0029 169.003>
VStem: 39.0029 130<-61.1055 529.904 599.994 741.002>
LayerCount: 2
Fore
SplineSet
39.0029296875 599.994140625 m 1x30
 39.0029296875 741.001953125 l 1
 169.002929688 741.001953125 l 1
 169.002929688 599.994140625 l 1
 39.0029296875 599.994140625 l 1x30
-116.073242188 -65.9716796875 m 5xb0
 106.719726562 -61.10546875 l 5x70
 110.823242188 -175.8515625 l 5
 -113.965820312 -180.892578125 l 5
 -116.073242188 -65.9716796875 l 5xb0
38 -110.896484375 m 1
 40.7587890625 532 l 1
 168.7421875 529.904296875 l 1
 165.983398438 -112.9921875 l 1
 38 -110.896484375 l 1
EndSplineSet
EndChar

StartChar: k
Encoding: 107 107 40
Width: 461
Flags: W
HStem: 0 21G<40 166> 721.002 20G<40 166>
VStem: 40 126<0 119 205.182 741.002>
LayerCount: 2
Fore
SplineSet
60.580078125 205.181640625 m 5
 343.282226562 538.536132812 l 5
 439.702148438 466.354492188 l 5
 147 119 l 5
 60.580078125 205.181640625 l 5
346 -17 m 1
 177.202148438 259.485351562 l 1
 281 328 l 1
 451.797851562 45.5146484375 l 1
 346 -17 l 1
40 0 m 1
 40 741.001953125 l 1
 166 741.001953125 l 1
 166 0 l 1
 40 0 l 1
EndSplineSet
EndChar

StartChar: n
Encoding: 110 110 41
Width: 496
Flags: W
HStem: 502.061 20G<40.5907 168.797>
VStem: 35 127.983<0.0419922 346.09 461.008 519.966> 333.49 127.917<0.589844 301.171>
LayerCount: 2
Fore
SplineSet
35 0.0419921875 m 1
 40.8134765625 522.060546875 l 1
 168.796875 519.965820312 l 1
 162.983398438 -2.052734375 l 1
 35 0.0419921875 l 1
82.8984375 461.0078125 m 1
 372.8984375 531.0078125 l 1
 404.64453125 416.08984375 l 1
 109.64453125 346.08984375 l 1
 82.8984375 461.0078125 l 1
333.490234375 -2.15625 m 1
 322.676757812 466.41796875 l 1
 450.59375 469.1640625 l 1
 461.407226562 0.58984375 l 1
 333.490234375 -2.15625 l 1
EndSplineSet
EndChar

StartChar: m
Encoding: 109 109 42
Width: 730
Flags: W
VStem: 35 127.979<240.296 529.766> 47.7578 127.979<0.242188 289.712> 307.856 127.945<-0.584961 353.827 416.09 428.901> 561.771 127.935<0.0302734 416.489>
LayerCount: 2
Fore
SplineSet
337.25 469.608398438 m 1x30
 612.516601562 532.4453125 l 1
 640.232421875 416.489257812 l 1
 359.96875 353.827148438 l 1
 337.25 469.608398438 l 1x30
561.771484375 0.0302734375 m 1
 567.317382812 468.697265625 l 1
 695.251953125 466.977539062 l 1
 689.706054688 -1.689453125 l 1
 561.771484375 0.0302734375 l 1
47.7578125 -2.130859375 m 1x70
 35 529.765625 l 1
 162.978515625 532.138671875 l 1xb0
 175.736328125 0.2421875 l 1
 47.7578125 -2.130859375 l 1x70
86.3681640625 461.0078125 m 1
 356.368164062 531.0078125 l 1
 388.114257812 416.08984375 l 1
 113.114257812 346.08984375 l 1
 86.3681640625 461.0078125 l 1
307.856445312 -1.0986328125 m 1
 307.856445312 428.901367188 l 1
 435.801757812 429.415039062 l 1
 435.801757812 -0.5849609375 l 1
 307.856445312 -1.0986328125 l 1
EndSplineSet
EndChar

StartChar: q
Encoding: 113 113 43
Width: 494
Flags: W
HStem: -181.131 21G<334.562 462.877> 400.733 64.3818<113.832 166.131> 405.849 114.925<166.131 441.971>
VStem: 323.141 120.657<405.849 518.766> 334.898 127.979<-178.758 235.552>
LayerCount: 2
Fore
SplineSet
451.119140625 522.138671875 m 1x90
 462.876953125 -178.7578125 l 1
 334.8984375 -181.130859375 l 1x88
 323.140625 518.765625 l 1
 451.119140625 522.138671875 l 1x90
398.625976562 29.171875 m 5
 112.181640625 -6.18359375 l 5
 94.677734375 111.74609375 l 5
 386.083984375 146.4921875 l 5
 398.625976562 29.171875 l 5
112.004882812 517.658203125 m 1
 441.970703125 520.7734375 l 1
 443.797851562 405.848632812 l 1xb0
 113.83203125 400.733398438 l 1xd0
 112.004882812 517.658203125 l 1
166.130859375 465.115234375 m 1xc0
 170.545898438 48.4072265625 l 5
 42.599609375 47.892578125 l 5
 38.1845703125 464.600585938 l 1
 166.130859375 465.115234375 l 1xc0
EndSplineSet
EndChar

StartChar: r
Encoding: 114 114 44
Width: 358
Flags: W
HStem: 0 21G<40 166>
VStem: 40 126<0 301.83 402.35 521.008>
LayerCount: 2
Fore
SplineSet
79.08203125 402.349609375 m 1
 296.513671875 528.412109375 l 1
 353.216796875 427.892578125 l 1
 135.78515625 301.830078125 l 1
 79.08203125 402.349609375 l 1
40 0 m 5
 40 521.0078125 l 5
 166 521.0078125 l 5
 166 0 l 5
 40 0 l 5
EndSplineSet
EndChar

StartChar: t
Encoding: 116 116 45
Width: 348
Flags: W
HStem: 0 110.032<208.181 320.132> 57.7168 55.7324<130.233 208.181> 407.309 107.779<18.7051 269.734> 415.865 107.929<77.0843 331.818>
VStem: 82.1807 126<113.449 673.725>
LayerCount: 2
Fore
SplineSet
15 515.087890625 m 1x28
 331.818359375 523.793945312 l 1
 333.982421875 415.865234375 l 1x18
 18.705078125 407.30859375 l 1
 15 515.087890625 l 1x28
130.233398438 113.44921875 m 1x48
 322.321289062 110.032226562 l 1
 320.131835938 0 l 1x88
 129.590820312 3.4853515625 l 1
 130.233398438 113.44921875 l 1x48
82.1806640625 673.724609375 m 1
 208.180664062 673.724609375 l 1
 208.180664062 57.716796875 l 1
 82.1806640625 57.716796875 l 1x48
 82.1806640625 673.724609375 l 1
EndSplineSet
EndChar

StartChar: u
Encoding: 117 117 46
Width: 496
Flags: W
HStem: 502.035 19.5586G<42.9342 171.105 324.141 452.608>
VStem: 43.1709 127.935<98.1865 519.874> 324.141 127.979<235.679 519.662> 336.898 127.979<0.138672 284.122>
LayerCount: 2
Fore
SplineSet
452.119140625 522.03515625 m 1xe0
 464.876953125 0.138671875 l 5
 336.8984375 -2.234375 l 5xd0
 324.140625 519.662109375 l 1
 452.119140625 522.03515625 l 1xe0
414.194335938 64.5244140625 m 1
 126.814453125 -15.5537109375 l 1
 91.0771484375 98.1865234375 l 1
 383.454101562 178.439453125 l 1
 414.194335938 64.5244140625 l 1
171.10546875 519.874023438 m 1
 165.559570312 51.20703125 l 1
 37.625 52.9267578125 l 1
 43.1708984375 521.59375 l 1
 171.10546875 519.874023438 l 1
EndSplineSet
EndChar

StartChar: v
Encoding: 118 118 47
Width: 490
Flags: W
HStem: 0 21G<121.527 364.258> 509.011 20G<46.9668 138.357 347.951 442.177>
LayerCount: 2
Fore
SplineSet
126.168945312 0 m 1
 123.168945312 134 l 1
 362.426757812 134 l 1
 359.426757812 0 l 1
 126.168945312 0 l 1
359.426757812 0 m 1
 238.62890625 32.5146484375 l 1
 352.540039062 529.010742188 l 5
 480.337890625 500.49609375 l 5
 359.426757812 0 l 1
126.168945312 0 m 1
 10 500.49609375 l 5
 133.797851562 529.010742188 l 5
 246.966796875 32.5146484375 l 1
 126.168945312 0 l 1
EndSplineSet
EndChar

StartChar: w
Encoding: 119 119 48
Width: 760
Flags: W
HStem: 0 21G<121.527 334.695 420.442 634.258> 509.011 20G<46.9668 138.357 311.4 412.919 617.951 712.177>
LayerCount: 2
Fore
SplineSet
426.168945312 0 m 1
 423.168945312 134 l 1
 632.426757812 134 l 1
 629.426757812 0 l 1
 426.168945312 0 l 1
629.426757812 0 m 1
 508.62890625 32.5146484375 l 1
 622.540039062 529.010742188 l 1
 750.337890625 500.49609375 l 1
 629.426757812 0 l 1
426.168945312 0 m 1
 280 510.49609375 l 1
 407.797851562 537.010742188 l 1
 536.966796875 32.5146484375 l 1
 426.168945312 0 l 1
126.168945312 0 m 1
 123.168945312 134 l 1
 332.426757812 134 l 1
 329.426757812 0 l 1
 126.168945312 0 l 1
329.426757812 0 m 1
 218.62890625 32.5146484375 l 1
 326.202148438 419.514648438 l 1
 424 359 l 1
 329.426757812 0 l 1
126.168945312 0 m 1
 10 500.49609375 l 1
 133.797851562 529.010742188 l 1
 246.966796875 32.5146484375 l 1
 126.168945312 0 l 1
EndSplineSet
EndChar

StartChar: x
Encoding: 120 120 49
Width: 448
Flags: W
HStem: 510.934 20G<84.3904 132.776 316.7 365.191>
LayerCount: 2
Fore
SplineSet
121.927734375 -17 m 1
 10 48.5146484375 l 1
 192.8046875 320 l 1
 329.677734375 530.93359375 l 1
 438.90625 469.418945312 l 5
 265.888671875 208 l 1
 121.927734375 -17 l 1
327.978515625 -17 m 1
 195.18359375 190 l 1
 10 469.418945312 l 5
 120.228515625 530.93359375 l 1
 251.30859375 322 l 1
 438.90625 48.5146484375 l 1
 327.978515625 -17 l 1
EndSplineSet
EndChar

StartChar: grave
Encoding: 96 96 50
Width: 244
Flags: W
HStem: 482.479 272.523
VStem: 10 224.27
LayerCount: 2
Fore
SplineSet
234.26953125 540.94140625 m 1
 136.110351562 482.478515625 l 1
 10 696.5390625 l 1
 108.159179688 755.001953125 l 1
 234.26953125 540.94140625 l 1
EndSplineSet
EndChar

StartChar: y
Encoding: 121 121 51
Width: 490
Flags: W
HStem: -182.841 120.432<106.994 300.548> 60 134<246.967 359.427> 509.011 20G<46.9668 138.983 347.792 442.177>
LayerCount: 2
Fore
SplineSet
106.994140625 -182.840820312 m 5
 100.0859375 -62.4091796875 l 5
 315.286132812 -54.89453125 l 5
 316.797851562 -175.514648438 l 5
 106.994140625 -182.840820312 l 5
126.168945312 60 m 1
 123.168945312 194 l 1
 362.426757812 194 l 1
 359.426757812 60 l 1
 126.168945312 60 l 1
316.797851562 -175.514648438 m 5
 193 -143 l 5
 352.540039062 529.010742188 l 1
 480.337890625 500.49609375 l 1
 316.797851562 -175.514648438 l 5
126.168945312 60 m 1
 10 500.49609375 l 1
 133.797851562 529.010742188 l 1
 246.966796875 92.5146484375 l 1
 126.168945312 60 l 1
EndSplineSet
EndChar

StartChar: z
Encoding: 122 122 52
Width: 416
Flags: W
HStem: 1.02637 114.949<159.503 385.639> 407.368 114.948<50.0918 384.342>
LayerCount: 2
Fore
SplineSet
35 117.8984375 m 5
 267.053710938 443.849609375 l 5
 384.732421875 406.072265625 l 5
 159.502929688 90.2412109375 l 5
 35 117.8984375 l 5
386.030273438 1.0263671875 m 5
 35.3916015625 2.9501953125 l 5
 35 117.8984375 l 5
 385.638671875 115.975585938 l 5
 386.030273438 1.0263671875 l 5
49.701171875 522.31640625 m 5
 384.341796875 521.021484375 l 5
 384.732421875 406.072265625 l 5
 50.091796875 407.368164062 l 5
 49.701171875 522.31640625 l 5
EndSplineSet
EndChar

StartChar: zero
Encoding: 48 48 54
Width: 542
Flags: W
HStem: 59.918 63.5703<100.057 180.73 365.222 406.26> 607.57 51.668<107.803 166.917> 615.082 36.1777<374.592 448.365> 716 20G<105.057 446.073>
VStem: 100.057 80.6738<62.6641 123.488> 365.222 62.3975<56.6426 116> 374.592 73.7734<615.082 651.26>
LayerCount: 2
Fore
SplineSet
425.365234375 -4.91796875 m 1x9c
 97.802734375 2.5703125 l 1
 100.056640625 123.48828125 l 1
 427.619140625 116 l 1
 425.365234375 -4.91796875 l 1x9c
105.056640625 728.48828125 m 5
 445.619140625 736 l 5
 448.365234375 615.08203125 l 5xba
 107.802734375 607.5703125 l 5xda
 105.056640625 728.48828125 l 5
48.8134765625 59.91796875 m 1
 35 656.4921875 l 5
 166.916992188 659.23828125 l 5xd8
 180.73046875 62.6640625 l 1
 48.8134765625 59.91796875 l 1
365.221679688 56.642578125 m 1xbc
 374.591796875 651.259765625 l 5xba
 507.508789062 648.513671875 l 5
 498.138671875 53.896484375 l 1
 365.221679688 56.642578125 l 1xbc
EndSplineSet
EndChar

StartChar: one
Encoding: 49 49 55
Width: 318
Flags: W
HStem: 0 21G<142.352 278.352> 611.57 116.918<27.7461 203.126> 621 110.008<88.6201 264>
VStem: 142.352 136<0 731.008>
LayerCount: 2
Fore
SplineSet
25 728.48828125 m 5xd0
 142.3515625 731.0078125 l 5
 264 621 l 5xb0
 27.74609375 611.5703125 l 5
 25 728.48828125 l 5xd0
142.3515625 0 m 1
 142.3515625 731.0078125 l 5
 278.3515625 731.0078125 l 5
 278.3515625 0 l 1
 142.3515625 0 l 1
EndSplineSet
EndChar

StartChar: two
Encoding: 50 50 56
Width: 495
Flags: W
HStem: 0.685547 124.43<107.853 465.927> 297.082 64.293<100.622 171.316> 367.553 62.9355<334.747 408.931> 603.57 55.0332<332.581 401.185> 611.082 124.918<69.3682 378.393>
VStem: 104.919 66.0078<0.685547 19.6103 297.082 361.002> 332.581 68.6035<603.57 658.604>
LayerCount: 2
Fore
SplineSet
104.918945312 0.533203125 m 1xe6
 107.852539062 125.115234375 l 1
 466.493164062 123.72265625 l 1
 465.926757812 -1.2236328125 l 1
 104.918945312 0.533203125 l 1xe6
35.3720703125 361.375 m 1
 171.31640625 361.001953125 l 1
 170.926757812 0.685546875 l 1
 35 0.0595703125 l 1
 35.3720703125 361.375 l 1
100.622070312 297.08203125 m 1
 98.3681640625 422 l 1
 408.930664062 430.48828125 l 1
 411.184570312 305.5703125 l 1
 100.622070312 297.08203125 l 1
403.930664062 728.48828125 m 1
 401.184570312 603.5703125 l 1xf6
 66.6220703125 611.08203125 l 1
 69.3681640625 736 l 1xee
 403.930664062 728.48828125 l 1
470.663085938 367.552734375 m 1
 334.747070312 364.809570312 l 1
 332.581054688 658.603515625 l 1
 468.497070312 661.346679688 l 1
 470.663085938 367.552734375 l 1
EndSplineSet
EndChar

StartChar: three
Encoding: 51 51 57
Width: 476
Flags: W
HStem: -0.988281 124.938<26.1162 305.991> 312.279 13.7432<302.011 373.867> 314.354 124.938<107.824 299.719> 602.594 65.2568<300.297 374.562> 611.082 124.918<33.2539 314.324>
VStem: 305.991 73.7822<74.4736 121.582 312.279 325.648 398.646 437.217>
LayerCount: 2
Fore
SplineSet
26.1162109375 123.950195312 m 1x84
 379.7734375 121.58203125 l 1
 379.700195312 -3.3564453125 l 1
 26.04296875 -0.98828125 l 1
 26.1162109375 123.950195312 l 1x84
437.954101562 326.022460938 m 1xc4
 441.934570312 74.84765625 l 1
 305.991210938 74.4736328125 l 1
 302.010742188 325.6484375 l 1
 437.954101562 326.022460938 l 1xc4
33.25390625 736 m 1x8c
 376.81640625 727.51171875 l 1
 374.5625 602.59375 l 1x94
 31 611.08203125 l 1
 33.25390625 736 l 1x8c
373.8671875 312.279296875 m 1xc4
 106.208984375 314.353515625 l 1
 107.82421875 439.291015625 l 1xa4
 375.482421875 437.216796875 l 1
 373.8671875 312.279296875 l 1xc4
436.2265625 667.850585938 m 1x94
 435.6484375 396.646484375 l 1
 299.71875 398.645507812 l 1
 300.296875 669.849609375 l 1
 436.2265625 667.850585938 l 1x94
EndSplineSet
EndChar

StartChar: four
Encoding: 52 52 58
Width: 541
Flags: W
HStem: 0 21G<297.123 429.123> 173.29 120.947<111.527 515.968>
LayerCount: 2
Fore
SplineSet
15 279.291015625 m 1
 258.32421875 745.506835938 l 1
 366.123046875 691.9921875 l 1
 131.2109375 238.515625 l 1
 15 279.291015625 l 1
516.533203125 173.290039062 m 1
 42.91015625 173.870117188 l 1
 15 279.291015625 l 1
 124.294921875 299.491210938 l 5
 515.967773438 294.237304688 l 5
 516.533203125 173.290039062 l 1
297.123046875 0 m 1
 297.123046875 651.0078125 l 1
 429.123046875 651.0078125 l 1
 429.123046875 0 l 1
 297.123046875 0 l 1
EndSplineSet
EndChar

StartChar: five
Encoding: 53 53 59
Width: 493
Flags: W
HStem: -1.6582 124.947<48.5918 322.685> 58.165 66.6904<322.685 388.668> 368.78 59.3643<85.5918 159.81> 613.205 117.946<109.728 433.805>
VStem: 85.5918 74.2178<368.78 428.145> 109.162 65.2217<613.205 728.616> 322.685 66.5488<309.657 363.864>
LayerCount: 2
Fore
SplineSet
389.233398438 -0.0908203125 m 1x72
 48.591796875 -1.658203125 l 1
 48.0263671875 123.2890625 l 1xb2
 388.66796875 124.85546875 l 1
 389.233398438 -0.0908203125 l 1x72
454.149414062 364.237304688 m 1
 458.62890625 58.5390625 l 1
 322.684570312 58.1650390625 l 1x72
 318.205078125 363.864257812 l 1
 454.149414062 364.237304688 l 1
389.369140625 309.657226562 m 1
 88.87890625 303.280273438 l 1
 85.591796875 428.14453125 l 1x3a
 386.08203125 434.521484375 l 1
 389.369140625 309.657226562 l 1
109.162109375 731.151367188 m 1x36
 433.8046875 732.823242188 l 1
 434.370117188 614.876953125 l 5
 109.727539062 613.205078125 l 5
 109.162109375 731.151367188 l 1x36
35 374.388671875 m 1
 45.9248046875 734.077148438 l 1
 174.383789062 728.616210938 l 1x36
 159.809570312 368.780273438 l 1x3a
 35 374.388671875 l 1
EndSplineSet
EndChar

StartChar: six
Encoding: 54 54 60
Width: 535
Flags: W
HStem: 0 21G<93 424.008> 70 56<93 176 359 424.008> 328 119<93 359> 328 53.0078<359 424.008> 603.57 47.4375<117.803 176> 611.082 124.918<140.39 446.619>
VStem: 93 83<70 126 328 447> 117.803 58.1973<603.57 651.008> 359 65.0078<70 126 328 381.008>
LayerCount: 2
Fore
SplineSet
359 70 m 1xd080
 359 381.0078125 l 1
 495 381.0078125 l 1
 495 70 l 1
 359 70 l 1xd080
424.0078125 0 m 5
 93 0 l 5
 93 126 l 5xc280
 424.0078125 126 l 5
 424.0078125 0 l 5
424.0078125 328 m 1xd280
 93 328 l 1
 93 447 l 1
 424.0078125 447 l 1xe280
 424.0078125 328 l 1xd280
115.056640625 728.48828125 m 1
 446.619140625 736 l 1
 449.365234375 611.08203125 l 1xc580
 117.802734375 603.5703125 l 1xc980
 115.056640625 728.48828125 l 1
40 70 m 1
 40 651.0078125 l 1
 176 651.0078125 l 1xc980
 176 70 l 1xca80
 40 70 l 1
EndSplineSet
EndChar

StartChar: seven
Encoding: 55 55 61
Width: 464
Flags: W
HStem: 592.57 128.918<31.7461 192.012> 604.082 124.918<135.043 295.309>
LayerCount: 2
Fore
SplineSet
66.14453125 26.5146484375 m 1x00
 311.078125 563.805664062 l 1
 429.876953125 507.291015625 l 1
 195.943359375 -20 l 1
 66.14453125 26.5146484375 l 1x00
295.896484375 505.021484375 m 1
 292.5625 729 l 1x40
 426.54296875 731.26953125 l 1
 429.876953125 507.291015625 l 1
 295.896484375 505.021484375 l 1
25 721.48828125 m 1x80
 292.5625 729 l 1
 295.30859375 604.08203125 l 1x40
 31.74609375 592.5703125 l 1
 25 721.48828125 l 1x80
EndSplineSet
EndChar

StartChar: asciicircum
Encoding: 94 94 62
Width: 388
Flags: W
HStem: 711.008 20G<90.3773 304.335>
LayerCount: 2
Fore
SplineSet
299.168945312 731.0078125 m 1
 302.168945312 617.0078125 l 1
 92.9111328125 617.0078125 l 1
 95.9111328125 731.0078125 l 1
 299.168945312 731.0078125 l 1
95.9111328125 731.0078125 m 1
 206.708984375 698.493164062 l 1
 127.797851562 391.997070312 l 1
 10 420.51171875 l 1
 95.9111328125 731.0078125 l 1
299.168945312 731.0078125 m 1
 378.337890625 424.522460938 l 1
 264.540039062 396.0078125 l 5
 188.37109375 698.493164062 l 1
 299.168945312 731.0078125 l 1
EndSplineSet
EndChar

StartChar: eight
Encoding: 56 56 63
Width: 527
Flags: W
HStem: -4.58301 21G<106 411.549> 47.8965 70.9795<106.5 172.139> 392 25.2393<98.4102 171 355 435.951> 605.369 47.6387<108.484 171 355 355> 711.008 20G<109 420.477>
VStem: 99.0527 73.4561<297.275 322.514 392 417.239> 108.484 62.5156<605.369 653.008> 355 68.0078<603.008 651.008> 355.222 55.8662<46.6426 117.449>
LayerCount: 2
Fore
SplineSet
35 392 m 1xfa
 35 653.0078125 l 1
 171 653.0078125 l 1
 171 392 l 1
 35 392 l 1xfa
35.2216796875 48.642578125 m 1
 35.591796875 323.259765625 l 1
 172.508789062 322.513671875 l 1xfc
 172.138671875 47.896484375 l 1
 35.2216796875 48.642578125 l 1
99.052734375 297.275390625 m 1
 98.41015625 417.239257812 l 1
 435.951171875 418.724609375 l 1
 438.140625 298.692382812 l 1
 99.052734375 297.275390625 l 1
355 390 m 1xf9
 355 651.0078125 l 1
 491 651.0078125 l 1
 491 390 l 1
 355 390 l 1xf9
355.221679688 46.642578125 m 1xf880
 355.591796875 321.259765625 l 1
 492.508789062 318.513671875 l 1
 492.138671875 43.896484375 l 1
 355.221679688 46.642578125 l 1xf880
109 729.0078125 m 1
 420.0078125 731.0078125 l 1
 423.0078125 603.0078125 l 1
 108.484375 605.369140625 l 1xfb
 109 729.0078125 l 1
106.5 118.875976562 m 1
 413.8984375 117.44921875 l 1
 411.087890625 -4.5830078125 l 1xf880
 106 -1 l 1
 106.5 118.875976562 l 1
EndSplineSet
EndChar

StartChar: nine
Encoding: 57 57 64
Width: 535
Flags: W
HStem: 5.77832 124.938<87.7852 359> 279 119<176 442> 344.992 53.0078<110.992 176> 610 56<110.992 176 359 442> 716 20G<110.992 442>
VStem: 110.992 65.0078<344.992 398 610 666> 359 83<279 398 610 666> 359 60.4082<84.9922 126.651>
LayerCount: 2
Fore
SplineSet
176 666 m 1xbc
 176 344.9921875 l 1
 40 344.9921875 l 1
 40 666 l 1
 176 666 l 1xbc
110.9921875 736 m 1
 442 736 l 1
 442 610 l 1x9e
 110.9921875 610 l 1
 110.9921875 736 l 1
110.9921875 398 m 1xbe
 442 398 l 1
 442 279 l 1
 110.9921875 279 l 1xde
 110.9921875 398 l 1xbe
417.79296875 1.7138671875 m 5
 86.169921875 5.7783203125 l 5
 87.78515625 130.715820312 l 5
 419.408203125 126.651367188 l 5x9d
 417.79296875 1.7138671875 l 5
495 666 m 5
 495 84.9921875 l 5
 359 84.9921875 l 5x9d
 359 666 l 5x9e
 495 666 l 5
EndSplineSet
EndChar

StartChar: period
Encoding: 46 46 65
Width: 230
Flags: W
HStem: 0 161.008<40 190>
VStem: 40 150<0 161.008>
LayerCount: 2
Fore
SplineSet
40 0 m 1
 40 161.0078125 l 5
 190 161.0078125 l 5
 190 0 l 1
 40 0 l 1
EndSplineSet
EndChar

StartChar: comma
Encoding: 44 44 67
Width: 196
Flags: W
HStem: -133.758 308.523
VStem: -32.2695 218.27
LayerCount: 2
Fore
SplineSet
-32.26953125 -89.294921875 m 5
 63.8408203125 174.765625 l 5
 186 130.302734375 l 5
 89.8896484375 -133.7578125 l 5
 -32.26953125 -89.294921875 l 5
EndSplineSet
EndChar

StartChar: exclam
Encoding: 33 33 69
Width: 216
Flags: W
HStem: 0 161.008<33 183> 711.008 20G<40 176>
VStem: 33 150<0 161.008> 40 136<233 731.008>
LayerCount: 2
Fore
SplineSet
40 233 m 5xd0
 40 731.0078125 l 5
 176 731.0078125 l 5
 176 233 l 5
 40 233 l 5xd0
EndSplineSet
Refer: 65 46 N 1 0 0 1 -7 0 2
EndChar

StartChar: question
Encoding: 63 63 70
Width: 479
Flags: W
HStem: 0 161.008<91.3779 241.378> 230.686 201.314<101.378 231.305> 311.082 60.293<102 231.694> 377.553 62.9355<303.125 377.309> 603.57 55.0332<300.959 369.562> 611.082 124.918<37.7461 346.771>
VStem: 91.3779 150<0 161.008> 101.378 129.927<230.686 311.082> 300.959 68.6035<603.57 658.604>
LayerCount: 2
Fore
SplineSet
101.75 371.375 m 1xa180
 231.694335938 371.001953125 l 1
 231.3046875 230.685546875 l 1xc180
 101.377929688 230.059570312 l 1
 101.75 371.375 l 1xa180
102 311.08203125 m 1xb080
 99.74609375 432 l 1xc080
 377.30859375 440.48828125 l 1
 379.5625 319.5703125 l 1
 102 311.08203125 l 1xb080
372.30859375 728.48828125 m 1
 369.5625 603.5703125 l 1x8880
 35 611.08203125 l 1
 37.74609375 736 l 1x8480
 372.30859375 728.48828125 l 1
439.041015625 377.552734375 m 1x9880
 303.125 374.809570312 l 1
 300.958984375 658.603515625 l 1
 436.875 661.346679688 l 1
 439.041015625 377.552734375 l 1x9880
EndSplineSet
Refer: 65 46 N 1 0 0 1 51.3779 0 2
EndChar

StartChar: hyphen
Encoding: 45 45 71
Width: 321
Flags: W
HStem: 198 119<25 296.008>
VStem: 25 271.008<198 317>
LayerCount: 2
Fore
SplineSet
25 317 m 5
 296.0078125 317 l 5
 296.0078125 198 l 5
 25 198 l 5
 25 317 l 5
EndSplineSet
EndChar

StartChar: plus
Encoding: 43 43 72
Width: 450
Flags: W
HStem: 328 119<25 425.008>
VStem: 165.504 119<187.496 587.504>
LayerCount: 2
Fore
SplineSet
165.50390625 187.49609375 m 1
 165.50390625 587.50390625 l 1
 284.50390625 587.50390625 l 1
 284.50390625 187.49609375 l 1
 165.50390625 187.49609375 l 1
25 447 m 5
 425.0078125 447 l 5
 425.0078125 328 l 5
 25 328 l 5
 25 447 l 5
EndSplineSet
EndChar

StartChar: quotesingle
Encoding: 39 39 73
Width: 206
Flags: W
HStem: 463 268.008<40 166>
VStem: 40 126<463 731.008>
LayerCount: 2
Fore
SplineSet
40 463 m 1
 40 731.0078125 l 1
 166 731.0078125 l 5
 166 463 l 5
 40 463 l 1
EndSplineSet
EndChar

StartChar: quotedbl
Encoding: 34 34 74
Width: 385
Flags: W
HStem: 454.88 283.245
VStem: 35 125.924<533.933 733.728> 44.3535 125.924<465.28 665.075> 215.175 125.923<459.277 663.095> 224.18 125.923<518.913 722.73>
LayerCount: 2
Fore
SplineSet
215.174804688 459.27734375 m 1x90
 224.1796875 727.127929688 l 1
 350.102539062 722.73046875 l 1x88
 341.09765625 454.879882812 l 1
 215.174804688 459.27734375 l 1x90
44.353515625 460.8828125 m 1xa0
 35 733.727539062 l 1
 160.923828125 738.125 l 1xc0
 170.27734375 465.280273438 l 1
 44.353515625 460.8828125 l 1xa0
EndSplineSet
EndChar

StartChar: ampersand
Encoding: 38 38 75
Width: 575
Flags: W
HStem: 69 54.9502<350 430.861> 312.279 23.5713<103.11 172.768> 314.354 124.938<177.259 350 486 549.153> 314.354 96.6543<350 486> 602.594 65.2568<102.415 176.681> 611.082 124.918<162.653 443.724>
VStem: 97.2041 75.9668<84.6445 121.582 398.646 437.217> 350 136<123.95 411.008>
LayerCount: 2
Fore
SplineSet
350 69 m 1x93
 350 411.0078125 l 5
 486 411.0078125 l 5
 486 69 l 1
 350 69 l 1x93
430.861328125 123.950195312 m 1
 430.934570312 -0.98828125 l 1
 97.27734375 -3.3564453125 l 1
 97.2041015625 121.58203125 l 1
 430.861328125 123.950195312 l 1
36.8388671875 333.8515625 m 1
 172.767578125 335.850585938 l 1xc3
 173.170898438 84.64453125 l 1
 37.2421875 82.6455078125 l 1
 36.8388671875 333.8515625 l 1
443.723632812 736 m 1x87
 445.977539062 611.08203125 l 1x87
 102.415039062 602.59375 l 1x8b
 100.161132812 727.51171875 l 1
 443.723632812 736 l 1x87
103.110351562 312.279296875 m 1xc3
 101.495117188 437.216796875 l 1
 549.153320312 439.291015625 l 1xa3
 550.768554688 314.353515625 l 1x93
 103.110351562 312.279296875 l 1xc3
40.7509765625 667.850585938 m 1x8b
 176.680664062 669.849609375 l 1
 177.258789062 398.645507812 l 1
 41.3291015625 396.646484375 l 1
 40.7509765625 667.850585938 l 1x8b
EndSplineSet
EndChar

StartChar: backslash
Encoding: 92 92 76
Width: 324
Flags: W
VStem: 10 304.283
LayerCount: 2
Fore
SplineSet
314.283203125 -150.740234375 m 1
 180.349609375 -174.356445312 l 1
 10 761.748046875 l 5
 143.93359375 785.364257812 l 5
 314.283203125 -150.740234375 l 1
EndSplineSet
EndChar

StartChar: slash
Encoding: 47 47 77
Width: 324
Flags: W
VStem: 10 304.283
LayerCount: 2
Fore
SplineSet
10 -150.740234375 m 1
 180.349609375 785.364257812 l 5
 314.283203125 761.748046875 l 5
 143.93359375 -174.356445312 l 1
 10 -150.740234375 l 1
EndSplineSet
EndChar

StartChar: bar
Encoding: 124 124 78
Width: 216
Flags: W
VStem: 40 136<-170 781.008>
LayerCount: 2
Fore
SplineSet
40 -170 m 5
 40 781.0078125 l 5
 176 781.0078125 l 5
 176 -170 l 5
 40 -170 l 5
EndSplineSet
EndChar

StartChar: dollar
Encoding: 36 36 79
Width: 529
Flags: W
HStem: -105.008 178.008<208 334> -4.91797 124.918<76.874 400.809> 59.6797 67.832<359.881 424.69> 300.082 65.1719<350.067 417.957> 368.231 65.2568<99.6484 178.914> 603.57 57.3545<107.395 170.93> 611.082 124.918<130.867 449.211> 643 178.008<210 336>
VStem: 99.6484 79.2656<370.232 433.488> 208 126<-105.008 73 643 821.008> 350.067 70.1436<300.082 365.254>
LayerCount: 2
Fore
SplineSet
208 -105.0078125 m 1x98e0
 208 73 l 1
 334 73 l 1
 334 -105.0078125 l 1
 208 -105.0078125 l 1x98e0
210 643 m 1x19e0
 210 821.0078125 l 1
 336 821.0078125 l 1
 336 643 l 1
 210 643 l 1x19e0
EndSplineSet
Refer: 16 83 S 1 0 0 1 0 0 2
EndChar

StartChar: percent
Encoding: 37 37 80
Width: 901
Flags: W
HStem: -4.91797 21G<566.946 784.947> 56.918 48.5703<569.2 641.874 742.365 766.295> 265.57 33.668<576.946 628.061> 273.082 18.1777<751.735 807.509> 433.635 45.877<106.85 148.917 269.062 321.706> 434.822 37.1777<91.1436 148.917 269.062 306> 645.594 45.7793<119.749 158.287 260.073 327.452>
VStem: 91.1436 57.7734<434.822 472> 96.8896 61.3975<653.082 692.439> 260.073 67.3789<645.594 686.678> 742.365 44.3975<56.6426 98> 751.735 55.7734<273.082 291.26>
LayerCount: 2
Fore
SplineSet
99.1435546875 758 m 5xc2c0
 329.706054688 750.51171875 l 5
 327.452148438 645.59375 l 5
 96.8896484375 653.08203125 l 5
 99.1435546875 758 l 5xc2c0
324.452148438 374.59375 m 1
 93.8896484375 367.08203125 l 1
 91.1435546875 472 l 1xc740
 321.706054688 479.51171875 l 1xcb40
 324.452148438 374.59375 l 1
269.0625 433.634765625 m 5xca40
 260.073242188 686.677734375 l 5
 376.224609375 691.373046875 l 5
 385.213867188 438.330078125 l 5
 269.0625 433.634765625 l 5xca40
35 440.568359375 m 5
 44.3701171875 698.185546875 l 5
 158.287109375 692.439453125 l 5xc6c0
 148.916992188 434.822265625 l 5xc740
 35 440.568359375 l 5
101.364257812 58 m 1
 723.143554688 760 l 1
 810.922851562 682 l 1
 189.143554688 -20 l 1
 101.364257812 58 l 1
784.508789062 -4.91796875 m 1
 566.946289062 2.5703125 l 1
 569.200195312 105.48828125 l 1
 786.762695312 98 l 1xc260
 784.508789062 -4.91796875 l 1
574.200195312 368.48828125 m 1
 804.762695312 376 l 1
 807.508789062 273.08203125 l 1xd250
 576.946289062 265.5703125 l 1xe250
 574.200195312 368.48828125 l 1
527.95703125 56.91796875 m 1
 514.143554688 293.4921875 l 1
 628.060546875 299.23828125 l 1xe240
 641.874023438 62.6640625 l 1
 527.95703125 56.91796875 l 1
742.365234375 56.642578125 m 1xd260
 751.735351562 291.259765625 l 1xd250
 866.65234375 285.513671875 l 1
 857.282226562 50.896484375 l 1
 742.365234375 56.642578125 l 1xd260
EndSplineSet
EndChar

StartChar: underscore
Encoding: 95 95 81
Width: 591
Flags: W
HStem: -109 109<25 566.008>
LayerCount: 2
Fore
SplineSet
25 0 m 1
 566.0078125 0 l 1
 566.0078125 -109 l 5
 25 -109 l 5
 25 0 l 1
EndSplineSet
EndChar

StartChar: equal
Encoding: 61 61 82
Width: 450
Flags: W
HStem: 228 119<25 425.008> 428 119<25 425.008>
LayerCount: 2
Fore
SplineSet
25 347 m 5
 425.0078125 347 l 5
 425.0078125 228 l 5
 25 228 l 5
 25 347 l 5
25 547 m 5
 425.0078125 547 l 5
 425.0078125 428 l 5
 25 428 l 5
 25 547 l 5
EndSplineSet
EndChar

StartChar: bracketleft
Encoding: 91 91 83
Width: 352
Flags: W
HStem: -170 120.008<176 327> 661 120.008<176 327>
VStem: 40 287<-170 -49.9922 661 781.008> 40 136<-49.9922 661>
LayerCount: 2
Fore
SplineSet
176 661 m 1xd0
 176 -49.9921875 l 1xd0
 327 -49.9921875 l 5
 327 -170 l 5
 40 -170 l 1
 40 781.0078125 l 1
 327 781.0078125 l 5
 327 661 l 5xe0
 176 661 l 1xd0
EndSplineSet
EndChar

StartChar: bracketright
Encoding: 93 93 84
Width: 352
Flags: W
HStem: -170 120.008<25 176> 661 120.008<25 176>
VStem: 25 287<-170 -49.9922 661 781.008> 176 136<-49.9922 661>
LayerCount: 2
Fore
SplineSet
176 661 m 5xd0
 25 661 l 1
 25 781.0078125 l 1
 312 781.0078125 l 5
 312 -170 l 5
 25 -170 l 1
 25 -49.9921875 l 1xe0
 176 -49.9921875 l 5
 176 661 l 5xd0
EndSplineSet
EndChar

StartChar: braceright
Encoding: 125 125 85
Width: 463
Flags: W
HStem: -173.942 124.938<27.1543 187.973> -100 55.5127<187.973 260.154> 231 31.0078<247.965 323.973> 320 30<247.965 323.973> 654.57 56.4375<187.973 259.562> 659.082 124.918<27.7461 187.973>
VStem: 27.1543 234.615<-169.425 -100 711.008 779.488> 187.973 71.5898<654.57 711.008> 247.965 76.0078<231 262.008 320 350>
LayerCount: 2
Fore
SplineSet
438.97265625 350 m 5x3080
 438.97265625 231 l 5
 247.96484375 231 l 5
 247.96484375 350 l 5
 438.97265625 350 l 5x3080
323.97265625 -100 m 5x7080
 187.97265625 -100 l 5
 187.97265625 262.0078125 l 5x71
 323.97265625 262.0078125 l 5
 323.97265625 -100 l 5x7080
260.154296875 -44.4873046875 m 5
 261.76953125 -169.424804688 l 5
 27.154296875 -173.942382812 l 5
 25.5390625 -49.0048828125 l 5xb2
 260.154296875 -44.4873046875 l 5
262.30859375 779.48828125 m 5
 259.5625 654.5703125 l 5x39
 25 659.08203125 l 5
 27.74609375 784 l 5x35
 262.30859375 779.48828125 l 5
323.97265625 320 m 5x3880
 187.97265625 320 l 5
 187.97265625 711.0078125 l 5x39
 323.97265625 711.0078125 l 5
 323.97265625 320 l 5x3880
EndSplineSet
EndChar

StartChar: asciitilde
Encoding: 126 126 86
Width: 582
Flags: W
HStem: 301.079 43.2432<285.012 338.604 425.728 485.714> 501.245 20G<95.3887 295.822>
VStem: 40 114.049<261.732 416.312> 96.5293 59.9863<416.312 457.789> 232.576 64.6553<415.828 457.848> 425.728 59.9863<302.846 344.322> 428.194 114.049<344.322 498.902>
LayerCount: 2
Fore
SplineSet
487.123046875 239.389648438 m 1xcc
 286.420898438 239.873046875 l 1
 285.01171875 344.806640625 l 1
 485.713867188 344.322265625 l 1
 487.123046875 239.389648438 l 1xcc
542.243164062 498.90234375 m 1xca
 539.775390625 301.079101562 l 1
 425.727539062 302.845703125 l 1xcc
 428.194335938 500.669921875 l 1
 542.243164062 498.90234375 l 1xca
95.1201171875 521.245117188 m 1
 295.822265625 520.76171875 l 1
 297.231445312 415.828125 l 1
 96.529296875 416.3125 l 1xd8
 95.1201171875 521.245117188 l 1
235.76171875 296.553710938 m 1
 232.576171875 457.84765625 l 1
 351.5546875 458.454101562 l 1
 351.999023438 295.1640625 l 1
 235.76171875 296.553710938 l 1
40 261.732421875 m 1xe8
 42.4677734375 459.555664062 l 1
 156.515625 457.7890625 l 1xd8
 154.048828125 259.96484375 l 1
 40 261.732421875 l 1xe8
EndSplineSet
EndChar

StartChar: less
Encoding: 60 60 87
Width: 450
Flags: W
LayerCount: 2
Fore
SplineSet
40 265.505859375 m 1
 40 498.763671875 l 1
 174 501.763671875 l 1
 174 262.505859375 l 1
 40 265.505859375 l 1
40 498.763671875 m 1
 414.49609375 586.673828125 l 5
 440.009765625 462.876953125 l 1
 72.513671875 381.96484375 l 1
 40 498.763671875 l 1
40 265.505859375 m 1
 72.513671875 382.302734375 l 1
 440.009765625 303.134765625 l 1
 414.49609375 183.3359375 l 5
 40 265.505859375 l 1
EndSplineSet
EndChar

StartChar: greater
Encoding: 62 62 88
Width: 450
Flags: W
LayerCount: 2
Fore
SplineSet
410.009765625 265.505859375 m 5
 276.009765625 262.505859375 l 5
 276.009765625 501.763671875 l 5
 410.009765625 498.763671875 l 5
 410.009765625 265.505859375 l 5
410.009765625 498.763671875 m 1
 377.49609375 381.96484375 l 1
 10 462.876953125 l 1
 35.513671875 586.673828125 l 1
 410.009765625 498.763671875 l 1
410.009765625 265.505859375 m 1
 35.513671875 183.3359375 l 1
 10 303.134765625 l 1
 377.49609375 382.302734375 l 1
 410.009765625 265.505859375 l 1
EndSplineSet
EndChar

StartChar: parenleft
Encoding: 40 40 89
Width: 363
Flags: W
HStem: -173.942 124.938<176 336.818> -100 55.5127<103.818 176> 654.57 56.4375<104.41 176> 659.082 124.918<176 336.227>
VStem: 102.203 234.615<-169.425 -100 711.008 779.488> 103.818 72.1816<654.57 711.008>
LayerCount: 2
Fore
SplineSet
103.818359375 -44.4873046875 m 5x44
 338.43359375 -49.0048828125 l 1
 336.818359375 -173.942382812 l 1
 102.203125 -169.424804688 l 5x88
 103.818359375 -44.4873046875 l 5x44
101.6640625 779.48828125 m 1
 336.2265625 784 l 1
 338.97265625 659.08203125 l 1x10
 104.41015625 654.5703125 l 1x20
 101.6640625 779.48828125 l 1
40 -100 m 1x64
 40 711.0078125 l 1
 176 711.0078125 l 1
 176 -100 l 1
 40 -100 l 1x64
EndSplineSet
EndChar

StartChar: parenright
Encoding: 41 41 90
Width: 363
Flags: W
HStem: -173.942 124.938<27.1543 187.973> -100 55.5127<187.973 260.154> 654.57 56.4375<187.973 259.562> 659.082 124.918<27.7461 187.973>
VStem: 27.1543 234.615<-169.425 -100 711.008 779.488> 187.973 72.1816<-100 -100 654.57 711.008>
LayerCount: 2
Fore
SplineSet
260.154296875 -44.4873046875 m 1x44
 261.76953125 -169.424804688 l 1
 27.154296875 -173.942382812 l 1
 25.5390625 -49.0048828125 l 1x88
 260.154296875 -44.4873046875 l 1x44
262.30859375 779.48828125 m 1
 259.5625 654.5703125 l 1x20
 25 659.08203125 l 1
 27.74609375 784 l 1x10
 262.30859375 779.48828125 l 1
323.97265625 -100 m 5x64
 187.97265625 -100 l 5
 187.97265625 711.0078125 l 1
 323.97265625 711.0078125 l 1
 323.97265625 -100 l 5x64
EndSplineSet
EndChar

StartChar: braceleft
Encoding: 123 123 91
Width: 463
Flags: W
HStem: -173.942 124.938<276 436.818> -100 55.5127<203.818 276> 231 31.0078<140 216.008> 320 30<140 216.008> 654.57 56.4375<204.41 276> 659.082 124.918<276 436.227>
VStem: 140 76.0078<231 262.008 320 350> 202.203 234.615<-169.425 -100 711.008 779.488> 204.41 71.5898<654.57 711.008>
LayerCount: 2
Fore
SplineSet
25 350 m 5x32
 216.0078125 350 l 1
 216.0078125 231 l 1
 25 231 l 5
 25 350 l 5x32
140 -100 m 1x72
 140 262.0078125 l 1x72
 276 262.0078125 l 1
 276 -100 l 1x7080
 140 -100 l 1x72
203.818359375 -44.4873046875 m 1
 438.43359375 -49.0048828125 l 1
 436.818359375 -173.942382812 l 1
 202.203125 -169.424804688 l 1xb1
 203.818359375 -44.4873046875 l 1
201.6640625 779.48828125 m 1
 436.2265625 784 l 1
 438.97265625 659.08203125 l 1x3480
 204.41015625 654.5703125 l 1x3880
 201.6640625 779.48828125 l 1
140 320 m 1x3a
 140 711.0078125 l 1x3a
 276 711.0078125 l 1
 276 320 l 1x3880
 140 320 l 1x3a
EndSplineSet
EndChar

StartChar: at
Encoding: 64 64 92
Width: 711
Flags: W
HStem: -142.918 124.918<184.356 603.146> -75.9707 66.459<94.8369 174.291> 59.2314 117.769<404.103 592.181> 117.232 59.7676<331.173 404.103> 368 119<406.118 592.181> 553.57 54.5566<112.583 170.944 540.188 564.136> 561.082 47.8418<145.593 170.944 540.188 597.146>
VStem: 331.173 72.9297<117.232 177 368 426.925> 538.173 54.0078<59.2314 177 368 487 561.082 561.082>
LayerCount: 2
Back
SplineSet
592.180664062 468 m 5xd280
 331.172851562 468 l 1
 331.172851562 587 l 1
 592.180664062 587 l 5xe280
 592.180664062 468 l 5xd280
268.172851562 219.231445312 m 1x68
 270.188476562 528.923828125 l 1
 406.118164062 526.924804688 l 1
 404.102539062 217.232421875 l 1
 268.172851562 219.231445312 l 1x68
592.180664062 158 m 5xd280
 331.172851562 158 l 1
 331.172851562 277 l 1
 592.180664062 277 l 5xe280
 592.180664062 158 l 5xd280
538.172851562 159.231445312 m 5x68
 540.188476562 708.923828125 l 5
 676.118164062 706.924804688 l 5
 674.102539062 157.232421875 l 5
 538.172851562 159.231445312 l 5x68
603.145507812 -42.91796875 m 5x88
 92.5830078125 -34.4296875 l 1
 94.8369140625 90.48828125 l 1x48
 605.399414062 82 l 5
 603.145507812 -42.91796875 l 5x88
109.836914062 778.48828125 m 1
 594.399414062 786 l 5
 597.145507812 661.08203125 l 5x18
 112.583007812 653.5703125 l 1x28
 109.836914062 778.48828125 l 1
38.3466796875 24.029296875 m 1x68
 35 707.75390625 l 1
 170.944335938 708.126953125 l 1
 174.291015625 24.40234375 l 1
 38.3466796875 24.029296875 l 1x68
EndSplineSet
Fore
SplineSet
592.180664062 368 m 5x0980
 331.172851562 368 l 1
 331.172851562 487 l 1
 592.180664062 487 l 5
 592.180664062 368 l 5x0980
268.172851562 119.231445312 m 1
 270.188476562 428.923828125 l 1
 406.118164062 426.924804688 l 1
 404.102539062 117.232421875 l 1x1980
 268.172851562 119.231445312 l 1
592.180664062 58 m 5
 331.172851562 58 l 1
 331.172851562 177 l 1x1980
 592.180664062 177 l 5x2980
 592.180664062 58 l 5
538.172851562 59.2314453125 m 5x2b80
 540.188476562 608.923828125 l 5
 676.118164062 606.924804688 l 5
 674.102539062 57.232421875 l 5
 538.172851562 59.2314453125 l 5x2b80
603.145507812 -142.91796875 m 5x8980
 92.5830078125 -134.4296875 l 1
 94.8369140625 -9.51171875 l 1x4980
 605.399414062 -18 l 5
 603.145507812 -142.91796875 l 5x8980
109.836914062 678.48828125 m 1
 594.399414062 686 l 5
 597.145507812 561.08203125 l 5x0b80
 112.583007812 553.5703125 l 1x0d80
 109.836914062 678.48828125 l 1
38.3466796875 -75.970703125 m 1x4d80
 35 607.75390625 l 1
 170.944335938 608.126953125 l 1
 174.291015625 -75.59765625 l 1
 38.3466796875 -75.970703125 l 1x4d80
EndSplineSet
EndChar

StartChar: numbersign
Encoding: 35 35 93
Width: 681
Flags: W
HStem: 171 111<25 615.008> 459 111<66 656.008>
LayerCount: 2
Fore
SplineSet
25 282 m 1
 615.0078125 282 l 1
 615.0078125 171 l 1
 25 171 l 1
 25 282 l 1
66 570 m 1
 656.0078125 570 l 1
 656.0078125 459 l 1
 66 459 l 1
 66 570 l 1
343.23046875 7.740234375 m 1
 473.8515625 746.8828125 l 1
 596.78515625 727.267578125 l 5
 466.1640625 -11.875 l 5
 343.23046875 7.740234375 l 1
78.23046875 7.740234375 m 1
 208.8515625 746.8828125 l 1
 331.78515625 727.267578125 l 1
 201.1640625 -11.875 l 1
 78.23046875 7.740234375 l 1
EndSplineSet
EndChar

StartChar: asterisk
Encoding: 42 42 94
Width: 372
Flags: W
HStem: 721.002 20G<137.45 234.55>
VStem: 137.45 97.0996<380.994 741.002>
LayerCount: 2
Fore
SplineSet
362.05859375 511.0234375 m 5
 315.303710938 430.198242188 l 5
 10 620.97265625 l 5
 56.7548828125 701.797851562 l 5
 362.05859375 511.0234375 l 5
10 511.0234375 m 5
 315.303710938 701.797851562 l 5
 362.05859375 620.97265625 l 5
 56.7548828125 430.198242188 l 5
 10 511.0234375 l 5
137.450195312 380.994140625 m 1
 137.450195312 741.001953125 l 1
 234.549804688 741.001953125 l 1
 234.549804688 380.994140625 l 1
 137.450195312 380.994140625 l 1
EndSplineSet
EndChar

StartChar: cent
Encoding: 162 162 95
Width: 403
Flags: W
HStem: 4.99219 178.008<178 294> 107.082 114.918<145.856 374.973> 175.231 55.2568<96.6641 160.93> 514.57 43.3545<104.41 167.945> 522.082 114.918<123.114 376.227> 553 178.008<180 296>
VStem: 104.41 63.5352<514.57 557.925> 178 116<4.99219 183 553 731.008>
LayerCount: 2
Fore
SplineSet
178 4.9921875 m 1x83
 178 183 l 1
 294 183 l 1
 294 4.9921875 l 1
 178 4.9921875 l 1x83
180 553 m 1x07
 180 731.0078125 l 1
 296 731.0078125 l 1
 296 553 l 1
 180 553 l 1x07
EndSplineSet
Refer: 30 99 N 1 0 0 1 0 110 2
EndChar

StartChar: sterling
Encoding: 163 163 96
Width: 531
Flags: W
HStem: 0 121<25 89.7129 223.23 506.008> 298 119<70 421.008> 611.082 124.918<254.027 451.227>
LayerCount: 2
Fore
SplineSet
70 417 m 1
 421.0078125 417 l 1
 421.0078125 298 l 1
 70 298 l 1
 70 417 l 1
506.0078125 0 m 1
 25 0 l 1
 25 121 l 1
 506.0078125 121 l 1
 506.0078125 0 l 1
236.6640625 728.48828125 m 1
 451.2265625 736 l 1
 453.97265625 611.08203125 l 1
 239.41015625 603.5703125 l 1
 236.6640625 728.48828125 l 1
89.712890625 82.13671875 m 1
 189.71484375 665.591796875 l 1
 323.232421875 643.01953125 l 5
 223.23046875 59.564453125 l 5
 89.712890625 82.13671875 l 1
EndSplineSet
EndChar

StartChar: yen
Encoding: 165 165 97
Width: 530
Flags: W
HStem: 0 21G<195 331> 108 99<65 465.008> 258 99<65 465.008> 720.413 20G<80.4116 138.168 388.433 447.575>
VStem: 195 136<0 331.008>
LayerCount: 2
Fore
SplineSet
65 207 m 5
 465.0078125 207 l 5
 465.0078125 108 l 5
 65 108 l 5
 65 207 l 5
65 357 m 5
 465.0078125 357 l 5
 465.0078125 258 l 5
 65 258 l 5
 65 357 l 5
EndSplineSet
Refer: 26 89 N 1 0 0 1 0 0 2
EndChar

StartChar: currency
Encoding: 164 164 98
Width: 541
Flags: W
HStem: 203.844 58.1562<329.831 390.098> 213.232 57.2559<149.535 213.801> 444.57 114.918<157.281 373.119> 452.082 114.918<173.26 389.098>
VStem: 87.8711 125.93<215.231 487.313> 94.8867 125.93<215.843 487.925> 319.018 72.8262<452.082 496.418> 329.831 60.2666<203.844 262>
LayerCount: 2
Fore
SplineSet
416.549804688 271.375 m 5x00
 531.7421875 156.182617188 l 5
 445.193359375 69.6328125 l 5
 330 184.826171875 l 5
 416.549804688 271.375 l 5x00
125.192382812 281.375 m 5
 211.7421875 194.826171875 l 5
 96.548828125 79.6328125 l 5
 10 166.182617188 l 5
 125.192382812 281.375 l 5
416.549804688 449.6328125 m 5
 330 536.181640625 l 5
 445.193359375 651.375 l 5
 531.7421875 564.825195312 l 5
 416.549804688 449.6328125 l 5
125.192382812 439.6328125 m 5
 10 554.825195312 l 5
 96.548828125 641.375 l 5
 211.7421875 526.181640625 l 5
 125.192382812 439.6328125 l 5
329.831054688 203.84375 m 5x81
 319.017578125 496.41796875 l 5x82
 446.934570312 499.1640625 l 5
 457.748046875 206.58984375 l 5
 329.831054688 203.84375 l 5x81
387.84375 147.08203125 m 5
 147.28125 155.5703125 l 5
 149.53515625 270.48828125 l 5x41
 390.09765625 262 l 5x81
 387.84375 147.08203125 l 5
154.53515625 559.48828125 m 5x22
 389.09765625 567 l 5
 391.84375 452.08203125 l 5x12
 157.28125 444.5703125 l 5
 154.53515625 559.48828125 l 5x22
87.87109375 215.231445312 m 5x48
 94.88671875 489.923828125 l 5
 220.81640625 487.924804688 l 5x44
 213.80078125 213.232421875 l 5
 87.87109375 215.231445312 l 5x48
EndSplineSet
EndChar

StartChar: brokenbar
Encoding: 166 166 99
Width: 216
Flags: W
VStem: 40 136<-170 251.008 360 781.008>
LayerCount: 2
Fore
SplineSet
40 360 m 5
 40 781.0078125 l 1
 176 781.0078125 l 1
 176 360 l 5
 40 360 l 5
40 -170 m 1
 40 251.0078125 l 1
 176 251.0078125 l 1
 176 -170 l 1
 40 -170 l 1
EndSplineSet
EndChar

StartChar: section
Encoding: 167 167 100
Width: 467
Flags: W
HStem: -21 116<71.4492 290.456> 36.9932 58.0068<290.456 362.457> 190.082 21.917<290.457 353.43> 258.085 55.4033<95.1211 160.998 306.457 309.998> 258.992 46.0078<140.806 160.998 306.457 355.684> 420.082 61.918<306.457 353.43> 506.364 37.124<115.121 172.591> 631.57 43.6201<112.867 173.296> 639.082 114.918<131.571 384.684>
VStem: 112.867 60.4287<631.57 675.19> 112.867 51.9922<428.57 456.071> 290.457 62.9727<190.082 211.999> 306.457 49.2266<293.448 305>
LayerCount: 2
Fore
SplineSet
362.45703125 -21 m 1xa6
 71.44921875 -21 l 1
 71.44921875 95 l 1xa6
 362.45703125 95 l 1x66
 362.45703125 -21 l 1xa6
290.456054688 36.9931640625 m 1x6610
 290.45703125 211.999023438 l 1
 416.458007812 211.999023438 l 1
 416.45703125 36.9931640625 l 1
 290.456054688 36.9931640625 l 1x6610
353.4296875 190.08203125 m 1
 92.8671875 198.5703125 l 1
 95.12109375 313.48828125 l 1x3610
 355.68359375 305 l 1x2e08
 353.4296875 190.08203125 l 1
35 258.084960938 m 1
 38.861328125 458.872070312 l 1
 164.859375 456.071289062 l 1x3620
 160.998046875 255.284179688 l 1
 35 258.084960938 l 1
306.45703125 258.9921875 m 1x2e08
 306.45703125 482 l 1
 432.45703125 482 l 1
 432.45703125 258.9921875 l 1
 306.45703125 258.9921875 l 1x2e08
353.4296875 420.08203125 m 1x2610
 112.8671875 428.5703125 l 1
 115.12109375 543.48828125 l 1
 355.68359375 535 l 1x2628
 353.4296875 420.08203125 l 1x2610
110.12109375 746.48828125 m 1
 384.68359375 754 l 1
 387.4296875 639.08203125 l 1x26c0
 112.8671875 631.5703125 l 1x2740
 110.12109375 746.48828125 l 1
46.5634765625 506.965820312 m 1
 47.2685546875 675.791992188 l 1
 173.295898438 675.190429688 l 1x2740
 172.590820312 506.364257812 l 1
 46.5634765625 506.965820312 l 1
EndSplineSet
EndChar

StartChar: dieresis
Encoding: 168 168 101
Width: 396
Flags: W
HStem: 590 141.008<38 168 228 358>
VStem: 38 130<590 731.008> 228 130<590 731.008>
LayerCount: 2
Fore
SplineSet
228 590 m 5
 228 731.0078125 l 5
 358 731.0078125 l 5
 358 590 l 5
 228 590 l 5
38 590 m 1
 38 731.0078125 l 1
 168 731.0078125 l 1
 168 590 l 1
 38 590 l 1
EndSplineSet
EndChar

StartChar: macron
Encoding: 175 175 103
Width: 339
Flags: W
HStem: 622.008 109<25 314.008>
VStem: 25 289.008<622.008 731.008>
LayerCount: 2
Fore
SplineSet
25 731.0078125 m 1
 314.0078125 731.0078125 l 5
 314.0078125 622.0078125 l 5
 25 622.0078125 l 1
 25 731.0078125 l 1
EndSplineSet
EndChar

StartChar: degree
Encoding: 176 176 104
Width: 439
Flags: W
HStem: 371.348 58.1562<276.96 337.227> 382.735 55.2568<96.6641 160.93> 612.074 43.3545<104.41 167.945> 714.504 20G<101.664 336.704>
VStem: 104.41 63.5352<612.074 655.429> 266.146 72.8262<619.586 663.922> 276.96 60.2666<371.348 429.504>
LayerCount: 2
Fore
SplineSet
276.959960938 371.34765625 m 5xba
 266.146484375 663.921875 l 5xbc
 394.063476562 666.66796875 l 5
 404.876953125 374.09375 l 5
 276.959960938 371.34765625 l 5xba
334.97265625 314.5859375 m 5
 94.41015625 323.07421875 l 5
 96.6640625 437.9921875 l 5x7a
 337.2265625 429.50390625 l 5xba
 334.97265625 314.5859375 l 5
101.6640625 726.9921875 m 5
 336.2265625 734.50390625 l 5
 338.97265625 619.5859375 l 5x3c
 104.41015625 612.07421875 l 5
 101.6640625 726.9921875 l 5
35 382.735351562 m 5x78
 42.015625 657.427734375 l 5
 167.9453125 655.428710938 l 5
 160.9296875 380.736328125 l 5
 35 382.735351562 l 5x78
EndSplineSet
EndChar

StartChar: plusminus
Encoding: 177 177 105
Width: 450
Flags: W
HStem: 187 119<25 165.504 284.504 425.008> 227.496 78.5039<165.504 284.504> 368 119<25 425.008>
VStem: 165.504 119<227.496 587.504>
LayerCount: 2
Fore
SplineSet
25 306 m 1xb0
 425.0078125 306 l 1
 425.0078125 187 l 1
 25 187 l 1
 25 306 l 1xb0
165.50390625 227.49609375 m 1x70
 165.50390625 587.50390625 l 1
 284.50390625 587.50390625 l 1
 284.50390625 227.49609375 l 1
 165.50390625 227.49609375 l 1x70
25 487 m 5
 425.0078125 487 l 5
 425.0078125 368 l 5
 25 368 l 5
 25 487 l 5
EndSplineSet
EndChar

StartChar: acute
Encoding: 180 180 106
Width: 244
Flags: W
HStem: 482.479 272.523
VStem: 10 224.27
LayerCount: 2
Fore
SplineSet
10 540.94140625 m 1
 136.110351562 755.001953125 l 1
 234.26953125 696.5390625 l 1
 108.159179688 482.478515625 l 1
 10 540.94140625 l 1
EndSplineSet
EndChar

StartChar: mu
Encoding: 181 181 107
Width: 495
Flags: W
HStem: 504.139 20G<35 163.337>
VStem: 35 127.979<134.082 521.766> 47.7578 127.979<-186.758 200.926> 328.859 128.001<-2.10254 63.4717 177.387 519.798>
LayerCount: 2
Fore
SplineSet
47.7578125 -189.130859375 m 1xb0
 35 521.765625 l 1
 162.978515625 524.138671875 l 1xd0
 175.736328125 -186.7578125 l 1
 47.7578125 -189.130859375 l 1xb0
456.860351562 519.9375 m 1
 460.158203125 -2.1025390625 l 1
 332.157226562 -2.2421875 l 1
 328.859375 519.797851562 l 1
 456.860351562 519.9375 l 1
414.192382812 63.4716796875 m 1
 126.8125 -16.6064453125 l 1
 91.07421875 97.1337890625 l 1
 383.451171875 177.38671875 l 1
 414.192382812 63.4716796875 l 1
EndSplineSet
EndChar

StartChar: logicalnot
Encoding: 172 172 108
Width: 450
Flags: W
HStem: 328 119<25 306.008>
VStem: 306.008 119<206.992 328>
LayerCount: 2
Fore
SplineSet
425.0078125 447 m 1
 425.0078125 206.9921875 l 5
 306.0078125 206.9921875 l 5
 306.0078125 328 l 1
 25 328 l 1
 25 447 l 1
 425.0078125 447 l 1
EndSplineSet
EndChar

StartChar: cedilla
Encoding: 184 184 110
Width: 315
Flags: W
HStem: -323.245 104.861<39.2598 200.849> -245.511 35.1621<159.499 225.375> -158.46 37.9551<159.498 216.423> -152.492 105.929<79.5674 159.498>
VStem: 79.5674 140.903<-120.505 -52.5312> 159.498 56.9248<-158.46 -120.505>
LayerCount: 2
Fore
SplineSet
220.470703125 -52.53125 m 1x18
 216.422851562 -158.459960938 l 1x24
 75.51953125 -152.4921875 l 1
 79.5673828125 -46.5634765625 l 1
 220.470703125 -52.53125 l 1x18
159.498046875 -120.504882812 m 1
 275.499023438 -120.504882812 l 1
 275.5 -245.510742188 l 1
 159.499023438 -245.510742188 l 1x64
 159.498046875 -120.504882812 l 1
225.375 -210.348632812 m 1
 229.634765625 -315.209960938 l 1
 39.259765625 -323.245117188 l 1
 35 -218.383789062 l 1x80
 225.375 -210.348632812 l 1
EndSplineSet
EndChar

StartChar: multiply
Encoding: 215 215 113
Width: 450
Flags: W
LayerCount: 2
Fore
SplineSet
344.35546875 184.002929688 m 5
 21.5068359375 506.8515625 l 1
 105.65234375 590.997070312 l 1
 428.500976562 268.1484375 l 5
 344.35546875 184.002929688 l 5
21.5068359375 268.1484375 m 1
 344.35546875 590.997070312 l 5
 428.500976562 506.8515625 l 5
 105.65234375 184.002929688 l 1
 21.5068359375 268.1484375 l 1
EndSplineSet
EndChar

StartChar: divide
Encoding: 247 247 114
Width: 450
Flags: W
HStem: 147.496 128.008<165.504 284.504> 328 119<25 425.008> 499.496 128.008<165.504 284.504>
VStem: 165.504 119<147.496 275.504 499.496 627.504>
CounterMasks: 1 e0
LayerCount: 2
Fore
SplineSet
165.50390625 147.49609375 m 5
 165.50390625 275.50390625 l 5
 284.50390625 275.50390625 l 5
 284.50390625 147.49609375 l 5
 165.50390625 147.49609375 l 5
165.50390625 499.49609375 m 1
 165.50390625 627.50390625 l 1
 284.50390625 627.50390625 l 1
 284.50390625 499.49609375 l 1
 165.50390625 499.49609375 l 1
25 447 m 1
 425.0078125 447 l 1
 425.0078125 328 l 1
 25 328 l 1
 25 447 l 1
EndSplineSet
EndChar

StartChar: guillemotleft
Encoding: 171 171 115
Width: 650
Flags: W
LayerCount: 2
Fore
SplineSet
350 205.505859375 m 5
 350 358.763671875 l 5
 484 361.763671875 l 5
 484 202.505859375 l 5
 350 205.505859375 l 5
350 358.763671875 m 5
 572.90625 506.721679688 l 5
 639.221679688 399.1171875 l 5
 420.5 260.12890625 l 5
 350 358.763671875 l 5
350 205.505859375 m 5
 420.5 304.138671875 l 5
 639.817382812 166.7890625 l 5
 574.869140625 62.94140625 l 5
 350 205.505859375 l 5
40 205.505859375 m 5
 40 358.763671875 l 5
 174 361.763671875 l 5
 174 202.505859375 l 5
 40 205.505859375 l 5
40 358.763671875 m 5
 262.90625 506.721679688 l 5
 329.221679688 399.1171875 l 5
 110.5 260.12890625 l 5
 40 358.763671875 l 5
40 205.505859375 m 5
 110.5 304.138671875 l 5
 329.817382812 166.7890625 l 5
 264.869140625 62.94140625 l 5
 40 205.505859375 l 5
EndSplineSet
EndChar

StartChar: guillemotright
Encoding: 187 187 116
Width: 650
Flags: W
LayerCount: 2
Fore
SplineSet
299.221679688 205.505859375 m 5
 165.221679688 202.505859375 l 5
 165.221679688 361.763671875 l 5
 299.221679688 358.763671875 l 5
 299.221679688 205.505859375 l 5
299.221679688 358.763671875 m 5
 228.721679688 260.12890625 l 5
 10 399.1171875 l 5
 76.3154296875 506.721679688 l 5
 299.221679688 358.763671875 l 5
299.221679688 205.505859375 m 5
 74.3525390625 62.94140625 l 5
 9.404296875 166.7890625 l 5
 228.721679688 304.138671875 l 5
 299.221679688 205.505859375 l 5
609.221679688 205.505859375 m 5
 475.221679688 202.505859375 l 5
 475.221679688 361.763671875 l 5
 609.221679688 358.763671875 l 5
 609.221679688 205.505859375 l 5
609.221679688 358.763671875 m 5
 538.721679688 260.12890625 l 5
 320 399.1171875 l 5
 386.315429688 506.721679688 l 5
 609.221679688 358.763671875 l 5
609.221679688 205.505859375 m 5
 384.352539062 62.94140625 l 5
 319.404296875 166.7890625 l 5
 538.721679688 304.138671875 l 5
 609.221679688 205.505859375 l 5
EndSplineSet
EndChar

StartChar: copyright
Encoding: 169 169 117
Width: 746
Flags: W
HStem: 0 21G<127.496 626.504> 60 66<127.496 166 580 626.504> 181.812 95.459<356.458 488.479> 215.887 65.6279<299.325 356.458> 455.812 95.459<359.966 489.106> 605.008 56<127.496 166 580 626.504> 711.008 20G<127.496 626.504>
VStem: 127.496 38.5039<60 126 605.008 661.008> 301.825 58.1406<452.056 511.733> 580 46.5039<60 126 605.008 661.008>
LayerCount: 2
Fore
SplineSet
488.479492188 181.811523438 m 5xefc0
 298.198242188 186.055664062 l 1
 299.325195312 281.514648438 l 1xdfc0
 489.606445312 277.270507812 l 5
 488.479492188 181.811523438 l 5xefc0
301.825195312 547.514648438 m 1
 489.106445312 551.270507812 l 5
 490.479492188 455.811523438 l 5
 303.198242188 452.055664062 l 1
 301.825195312 547.514648438 l 1
255.493164062 215.88671875 m 1
 259.000976562 512.732421875 l 1
 359.965820312 511.733398438 l 1
 356.458007812 214.88671875 l 1
 255.493164062 215.88671875 l 1
626.50390625 0 m 1
 127.49609375 0 l 1
 127.49609375 126 l 1
 626.50390625 126 l 1
 626.50390625 0 l 1
626.50390625 605.0078125 m 1
 127.49609375 605.0078125 l 1
 127.49609375 731.0078125 l 1
 626.50390625 731.0078125 l 1
 626.50390625 605.0078125 l 1
580 60 m 1
 580 661.0078125 l 1
 706 661.0078125 l 1
 706 60 l 1
 580 60 l 1
40 60 m 1
 40 661.0078125 l 1
 166 661.0078125 l 1
 166 60 l 1
 40 60 l 1
EndSplineSet
EndChar

StartChar: registered
Encoding: 174 174 118
Width: 746
Flags: W
HStem: 0 21G<127.496 626.504> 60 66<127.496 166 580 626.504> 291.043 92.459<280.521 341.551 405.745 411.176> 450.547 93.459<276.449 410.839> 605.008 56<127.496 166 580 626.504> 711.008 20G<127.496 626.504>
VStem: 127.496 38.5039<60 126 605.008 661.008> 229.949 101<178.502 291.043 383.502 450.547> 276.895 54.0547<450.547 544.006> 405.745 5.43066<299.424 377.258> 580 46.5039<60 126 605.008 661.008>
LayerCount: 2
Fore
SplineSet
435.94921875 161.001953125 m 5xfe60
 341.55078125 306.244140625 l 5
 422.44921875 356.001953125 l 5
 517.848632812 214.759765625 l 5
 435.94921875 161.001953125 l 5xfe60
229.94921875 178.501953125 m 1xff60
 229.94921875 544.005859375 l 1xff60
 330.94921875 544.005859375 l 1xfee0
 330.94921875 178.501953125 l 1
 229.94921875 178.501953125 l 1xff60
276.44921875 544.005859375 m 1
 436.44921875 544.005859375 l 1
 437.822265625 450.546875 l 1
 275.322265625 450.546875 l 1
 276.44921875 544.005859375 l 1
411.17578125 284.798828125 m 1
 276.89453125 291.04296875 l 1xfee0
 280.521484375 383.501953125 l 1
 414.802734375 377.2578125 l 1
 411.17578125 284.798828125 l 1
405.745117188 299.423828125 m 1
 410.838867188 515.2109375 l 1
 511.796875 513.083984375 l 1
 506.704101562 297.296875 l 1
 405.745117188 299.423828125 l 1
626.50390625 0 m 1
 127.49609375 0 l 1
 127.49609375 126 l 1
 626.50390625 126 l 1
 626.50390625 0 l 1
626.50390625 605.0078125 m 1
 127.49609375 605.0078125 l 1
 127.49609375 731.0078125 l 1
 626.50390625 731.0078125 l 1
 626.50390625 605.0078125 l 1
580 60 m 1
 580 661.0078125 l 1
 706 661.0078125 l 1
 706 60 l 1
 580 60 l 1
40 60 m 1
 40 661.0078125 l 1
 166 661.0078125 l 1
 166 60 l 1
 40 60 l 1
EndSplineSet
EndChar

StartChar: Thorn
Encoding: 222 222 119
Width: 534
Flags: W
HStem: 150.912 124.938<94.6631 363.321> 473.089 124.938<93.3037 363.772> 712.139 20G<35 171.328>
VStem: 47.7578 135.979<1.24219 399.9> 363.321 65.9629<216.126 271.682>
LayerCount: 2
Fore
SplineSet
47.7578125 -1.130859375 m 1
 35 729.765625 l 1
 170.978515625 732.138671875 l 1
 183.736328125 1.2421875 l 1
 47.7578125 -1.130859375 l 1
93.3037109375 598.02734375 m 1
 433.251953125 603.9609375 l 1
 438.177734375 479.110351562 l 1
 93.23046875 473.088867188 l 1
 93.3037109375 598.02734375 l 1
427.668945312 146.743164062 m 1
 93.0478515625 150.912109375 l 1
 94.6630859375 275.850585938 l 1
 429.284179688 271.681640625 l 1
 427.668945312 146.743164062 l 1
363.321289062 216.125976562 m 1
 363.772460938 538.880859375 l 1
 499.702148438 536.881835938 l 1
 499.250976562 214.126953125 l 1
 363.321289062 216.125976562 l 1
EndSplineSet
EndChar

StartChar: thorn
Encoding: 254 254 120
Width: 496
Flags: W
HStem: 1.54004 116.907<88.3516 329.971> 507.328 20G<287.969 390.439> 721.002 20G<40 166>
VStem: 40 126<-178.994 1.54004 118.447 351.711 467.492 741.002> 329.971 53.0254<61.8242 115.675>
LayerCount: 2
Fore
SplineSet
40 -178.994140625 m 1
 40 741.001953125 l 1
 166 741.001953125 l 1
 166 -178.994140625 l 1
 40 -178.994140625 l 1
93.392578125 467.4921875 m 1
 385.658203125 527.328125 l 1
 413.375 411.373046875 l 1
 116.111328125 351.7109375 l 1
 93.392578125 467.4921875 l 1
380.661132812 -1.2333984375 m 1
 86.015625 1.5400390625 l 1
 88.3515625 118.447265625 l 1
 382.99609375 115.674804688 l 1
 380.661132812 -1.2333984375 l 1
329.970703125 61.82421875 m 1
 333.212890625 464.53125 l 1
 461.1484375 462.810546875 l 1
 457.905273438 60.1044921875 l 1
 329.970703125 61.82421875 l 1
EndSplineSet
EndChar

StartChar: ordfeminine
Encoding: 170 170 121
Width: 335
Flags: W
HStem: 382 77<293.889 321.091> 538 53<60 113> 546 84<87.75 279> 666 41<193 238> 674 83<67 216.25>
VStem: 67 48<413 467> 193 45<666 705> 200 87<429 705>
LayerCount: 2
Fore
SplineSet
64 674 m 1x8e
 67 757 l 1x8e
 242 749 l 1
 238 666 l 1x96
 64 674 l 1x8e
200 428 m 1x95
 193 705 l 1x96
 280 707 l 1
 287 429 l 1
 200 428 l 1x95
60 538 m 1xc4
 57 622 l 1
 279 630 l 1
 282 546 l 1xa4
 60 538 l 1xc4
25 412 m 1
 23 591 l 1xc4
 113 592 l 5
 115 413 l 5
 25 412 l 1
71 384 m 1
 67 467 l 1
 256 478 l 1
 260 395 l 1
 71 384 l 1
220 401 m 1
 234 477 l 1
 332 459 l 1
 320 382 l 1
 220 401 l 1
EndSplineSet
EndChar

StartChar: ordmasculine
Encoding: 186 186 122
Width: 339
Flags: W
HStem: 664 33<72 111 228 228>
VStem: 66 55<436 476> 221 41<432 470> 228 49<670 693>
LayerCount: 2
Fore
SplineSet
261 391 m 5xe0
 65 396 l 5
 66 476 l 5
 262 470 l 5
 261 391 l 5xe0
70 743 m 5
 275 748 l 5
 277 670 l 5xd0
 72 664 l 5
 70 743 l 5
32 434 m 5
 23 695 l 5
 111 697 l 5
 121 436 l 5
 32 434 l 5
221 432 m 5xe0
 228 693 l 5xd0
 316 691 l 5
 310 430 l 5
 221 432 l 5xe0
EndSplineSet
EndChar

StartChar: AE
Encoding: 198 198 123
Width: 839
Flags: W
HStem: 0 126<403.546 814.554> 173.57 124.918<141.787 460.131> 181.082 124.918<165.26 483.604> 308 119<443.546 774.554> 597.008 134<387.077 809.546>
VStem: 403.546 136<126 181.082 306 308 427 731.008> 443.546 96<308 427>
LayerCount: 2
Fore
SplineSet
814.553710938 0 m 1x9c
 403.545898438 0 l 1
 403.545898438 126 l 1
 814.553710938 126 l 1
 814.553710938 0 l 1x9c
774.553710938 308 m 5
 443.545898438 308 l 5
 443.545898438 427 l 5x9a
 774.553710938 427 l 5
 774.553710938 308 l 5
403.545898438 0 m 1x9c
 403.545898438 731.0078125 l 1
 539.545898438 731.0078125 l 1x9c
 539.545898438 0 l 1x9a
 403.545898438 0 l 1x9c
139.041015625 298.48828125 m 1xd8
 483.603515625 306 l 1
 486.349609375 181.08203125 l 1xb8
 141.787109375 173.5703125 l 1
 139.041015625 298.48828125 l 1xd8
809.545898438 731.0078125 m 1
 812.545898438 597.0078125 l 1
 263.288085938 597.0078125 l 1
 266.288085938 731.0078125 l 1
 809.545898438 731.0078125 l 1
266.288085938 731.0078125 m 1
 387.077148438 685.83203125 l 1
 138.376953125 -10 l 1
 10 32.4521484375 l 1
 266.288085938 731.0078125 l 1
EndSplineSet
EndChar

StartChar: ae
Encoding: 230 230 124
Width: 734
Flags: W
HStem: -5.91797 113.918<174.06 658.365> 33.2832 82.6348<110.254 157.407> 203 67.1436<112 154.468> 216.082 102.918<349.679 608.227> 403.082 46.8418<574.016 635.365> 412.53 59.9619<295 350.115 382.803 420.917> 423.234 109.767<100.776 262.055> 503.488 20G<384.664 637.619>
VStem: 295 60.2529<412.53 472.492> 305.813 125.917<64.6641 326.994> 382.803 38.1143<408.57 477.238>
LayerCount: 2
Fore
SplineSet
109.25390625 305.91796875 m 1x20
 608.2265625 319 l 1
 610.97265625 216.08203125 l 1x10
 112 203 l 1
 109.25390625 305.91796875 l 1x20
569 216.231445312 m 1
 574.015625 449.923828125 l 1x08
 699.9453125 447.924804688 l 1
 694.9296875 214.232421875 l 1
 569 216.231445312 l 1
658.365234375 -5.91796875 m 5x80
 108 2 l 5
 110.25390625 115.91796875 l 5x40
 660.619140625 108 l 5
 658.365234375 -5.91796875 l 5x80
385.056640625 523.48828125 m 1x0920
 637.619140625 518 l 1
 635.365234375 403.08203125 l 1
 382.802734375 408.5703125 l 1
 385.056640625 523.48828125 l 1x0920
420.916992188 477.23828125 m 1
 431.73046875 64.6640625 l 1
 305.813476562 59.91796875 l 1x0440
 295 472.4921875 l 1x0480
 420.916992188 477.23828125 l 1
95.638671875 423.234375 m 1x0280
 100.776367188 533.000976562 l 1x0280
 355.252929688 522.296875 l 1
 350.115234375 412.530273438 l 1x0480
 95.638671875 423.234375 l 1x0280
37.9384765625 32.041015625 m 1
 35 268.900390625 l 1
 154.467773438 270.143554688 l 1
 157.407226562 33.283203125 l 1x60
 37.9384765625 32.041015625 l 1
EndSplineSet
EndChar

StartChar: Oslash
Encoding: 216 216 125
Width: 559
Flags: W
HStem: -4.91797 21G<93.45 454.452> 63.8438 63.668<388.592 451.706> 86.8223 33.1777<91.1436 168.917> 603.594 67.5703<367.778 452.452> 716 20G<93.7827 454.706>
VStem: 91.1436 77.7734<86.8223 120> 91.8896 86.3975<611.082 654.439> 367.778 84.6738<603.594 666.418>
LayerCount: 2
Fore
SplineSet
33.4658203125 -48.1376953125 m 5x99
 394.719726562 832.092773438 l 5
 510.817382812 788.145507812 l 5
 149.563476562 -92.0849609375 l 5
 33.4658203125 -48.1376953125 l 5x99
EndSplineSet
Refer: 1 79 N 1 0 0 1 0 0 2
EndChar

StartChar: oslash
Encoding: 248 248 126
Width: 492
Flags: W
HStem: 59.918 55.5703<100.057 172.73 323.222 359.52> 405.57 43.668<107.803 158.917> 413.082 28.1777<332.592 398.365> 506 20G<105.057 396.106>
VStem: 100.057 72.6738<62.6641 115.488> 323.222 54.3975<56.6426 108> 332.592 65.7734<413.082 441.26>
LayerCount: 2
Fore
SplineSet
24.4658203125 -48.1376953125 m 5x98
 348 596 l 5
 454.09765625 544.052734375 l 5
 130.563476562 -100.084960938 l 5
 24.4658203125 -48.1376953125 l 5x98
EndSplineSet
Refer: 27 111 N 1 0 0 1 0 0 2
EndChar

StartChar: germandbls
Encoding: 223 223 127
Width: 664
Flags: W
HStem: 0 116<278.992 498> 57.9922 58.0078<498 570> 199.082 71.918<498 554.973> 268.231 54.2568<316.664 380.93> 417.889 107.779<23.7051 156.818> 622.275 63.7324<128.039 205.986 454.986 454.986>
VStem: 20 185.986<417.889 519.111> 79.9863 78.9961<411.183 519.111> 127.396 78.5898<622.275 686.008> 324.41 63.5352<402.57 443.925> 454.986 63.9863<408.082 408.082 625.692 686.008> 498 72<57.9922 116> 498 59.2266<199.082 271>
LayerCount: 2
Fore
SplineSet
454.986328125 407 m 1x0c60
 454.986328125 686.0078125 l 1
 575.986328125 686.0078125 l 1
 575.986328125 407 l 1
 454.986328125 407 l 1x0c60
570 0 m 1x8c50
 278.9921875 0 l 1
 278.9921875 116 l 1x8c50
 570 116 l 1x4c50
 570 0 l 1x8c50
498 57.9921875 m 1x6c50
 498 271 l 1x6c48
 624 271 l 1
 624 57.9921875 l 1
 498 57.9921875 l 1x6c50
554.97265625 199.08203125 m 1
 314.41015625 207.5703125 l 1
 316.6640625 322.48828125 l 1x1c48
 557.2265625 314 l 1
 554.97265625 199.08203125 l 1
321.6640625 511.48828125 m 5
 516.2265625 517 l 5
 518.97265625 408.08203125 l 1x0c60
 324.41015625 402.5703125 l 1
 321.6640625 511.48828125 l 5
255 268.231445312 m 1x1c40
 262.015625 448.923828125 l 1
 387.9453125 443.924804688 l 1
 380.9296875 263.232421875 l 1
 255 268.231445312 l 1x1c40
20 417.888671875 m 1x0e40
 23.705078125 525.66796875 l 1
 158.982421875 519.111328125 l 1x0d40
 156.818359375 411.182617188 l 1
 20 417.888671875 l 1x0e40
128.0390625 622.275390625 m 1
 127.396484375 740.239257812 l 1x0cc0
 517.9375 743.724609375 l 1
 520.126953125 625.692382812 l 1
 128.0390625 622.275390625 l 1
79.986328125 0 m 1x8d40
 79.986328125 686.0078125 l 1x8d40
 205.986328125 686.0078125 l 1
 205.986328125 0 l 1x8cc0
 79.986328125 0 l 1x8d40
EndSplineSet
EndChar

StartChar: Eth
Encoding: 208 208 128
Width: 602
Flags: W
HStem: -4.91797 124.918<26.7461 113.856 247.773 431.448> 54.8438 70.668<431.448 495.562> 86.8223 33.1777<113.856 247.773> 308 119<25 356.008> 607.594 51.5703<417.635 497.309> 611.082 124.918<27 123.227 257.144 417.635>
VStem: 113.856 133.917<88.5684 510.864> 123.227 133.917<232.144 654.439> 417.635 79.6738<607.594 657.418>
LayerCount: 2
Fore
SplineSet
25 427 m 1x1080
 356.0078125 427 l 5
 356.0078125 308 l 5
 25 308 l 1
 25 427 l 1x1080
EndSplineSet
Refer: 7 68 N 1 0 0 1 0 0 2
EndChar

StartChar: eth
Encoding: 240 240 129
Width: 510
Flags: W
HStem: 60.8438 55.668<336.96 389.074>
VStem: 95.2578 75.2881<48.4072 114>
LayerCount: 2
Fore
SplineSet
226.772460938 574.495117188 m 5
 471.5390625 652.922851562 l 5
 500.256835938 557.7421875 l 5
 256 483 l 5
 226.772460938 574.495117188 l 5
342.14453125 747.962890625 m 5
 463.063476562 587.1640625 l 5
 371.161132812 518.133789062 l 5
 248.624023438 677.758789062 l 5
 342.14453125 747.962890625 l 5
389.8203125 -0.40625 m 1
 95.2578125 -2.91796875 l 1
 94.51171875 114 l 1
 389.07421875 116.51171875 l 1
 389.8203125 -0.40625 l 1
336.959960938 60.84375 m 1
 335.146484375 587.41796875 l 5
 463.063476562 587.1640625 l 5
 464.876953125 60.58984375 l 1
 336.959960938 60.84375 l 1
119.903320312 453.407226562 m 5
 398.161132812 422.379882812 l 5
 385.969726562 308.088867188 l 5
 107.466796875 337.130859375 l 5
 119.903320312 453.407226562 l 5
166.130859375 385.115234375 m 5
 170.545898438 48.4072265625 l 1
 42.599609375 47.892578125 l 1
 38.1845703125 384.600585938 l 5
 166.130859375 385.115234375 l 5
EndSplineSet
EndChar

StartChar: dotlessi
Encoding: 305 305 130
Width: 206
Flags: W
HStem: 0 21G<40 166>
VStem: 40 126<0 521.008>
LayerCount: 2
Fore
SplineSet
40 0 m 1
 40 521.0078125 l 1
 166 521.0078125 l 1
 166 0 l 1
 40 0 l 1
EndSplineSet
EndChar

StartChar: uni0237
Encoding: 567 567 131
Width: 206
Flags: W
HStem: -180.893 114.921<-113.966 38> -112.992 51.8867<38 106.72> 512 20G<40.673 168.742>
VStem: 40.7588 127.983<-61.1055 529.904>
LayerCount: 2
Fore
SplineSet
-116.073242188 -65.9716796875 m 1xb0
 106.719726562 -61.10546875 l 1x70
 110.823242188 -175.8515625 l 1
 -113.965820312 -180.892578125 l 1
 -116.073242188 -65.9716796875 l 1xb0
38 -110.896484375 m 1
 40.7587890625 532 l 1
 168.7421875 529.904296875 l 1
 165.983398438 -112.9921875 l 1
 38 -110.896484375 l 1
EndSplineSet
EndChar

StartChar: kgreenlandic
Encoding: 312 312 132
Width: 461
Flags: W
HStem: 0 21G<40 166> 510.934 20G<40 166>
VStem: 40 126<0 119 205.182 530.934>
LayerCount: 2
Fore
SplineSet
60.580078125 205.181640625 m 5
 343.282226562 538.536132812 l 5
 439.702148438 466.354492188 l 5
 147 119 l 5
 60.580078125 205.181640625 l 5
346 -17 m 1
 177.202148438 259.485351562 l 1
 281 328 l 1
 451.797851562 45.5146484375 l 1
 346 -17 l 1
40 0 m 1
 40 530.93359375 l 1
 166 530.93359375 l 1
 166 0 l 1
 40 0 l 1
EndSplineSet
EndChar

StartChar: Eng
Encoding: 330 330 133
Width: 555
Flags: W
HStem: -4.17773 21G<35 169.063> 713.439 20G<40.2245 183.226>
VStem: 35 133.917<-2.43164 733.439> 367.778 135.917<416.259 725.418>
LayerCount: 2
Fore
SplineSet
479.643554688 -70.984375 m 5
 254.956054688 -139.474609375 l 5
 219.047851562 -19.609375 l 5
 443.735351562 48.880859375 l 5
 479.643554688 -70.984375 l 5
427.370117188 167.201171875 m 29
 384.591796875 -26.15625 l 29
 111.370117188 578.201171875 l 1
 174.287109375 733.439453125 l 1
 427.370117188 167.201171875 l 29
384.591796875 -26.15625 m 5
 367.778320312 725.41796875 l 1
 503.6953125 729.1640625 l 1
 520.508789062 -22.41015625 l 5
 384.591796875 -26.15625 l 5
35 -2.431640625 m 1
 40.3701171875 735.185546875 l 1
 174.287109375 733.439453125 l 1
 168.916992188 -4.177734375 l 1
 35 -2.431640625 l 1
EndSplineSet
EndChar

StartChar: eng
Encoding: 331 331 134
Width: 493
Flags: W
HStem: -178.994 126<170 322.222> -110.104 57.1094<322.222 401.008> -5.08203 21G<45.4089 171.73> 512 20.2383G<35 161.322 262.678 390.079>
VStem: 35 125.917<186.187 529.492> 45.8135 125.917<-2.33594 340.969> 322.222 78.7861<-107.357 -52.9941>
LayerCount: 2
Fore
SplineSet
401.0078125 -178.994140625 m 1xb2
 170 -178.994140625 l 5
 170 -52.994140625 l 5xb2
 401.0078125 -52.994140625 l 1x72
 401.0078125 -178.994140625 l 1xb2
402.365234375 412.08203125 m 1
 111.802734375 365.5703125 l 1
 97.056640625 485.48828125 l 1
 387.619140625 532 l 1
 402.365234375 412.08203125 l 1
45.8134765625 -5.08203125 m 1x36
 35 529.4921875 l 1
 160.916992188 532.23828125 l 1x3a
 171.73046875 -2.3359375 l 1
 45.8134765625 -5.08203125 l 1x36
322.221679688 -107.357421875 m 1
 331.591796875 470.259765625 l 1
 458.508789062 467.513671875 l 1
 449.138671875 -110.103515625 l 1x72
 322.221679688 -107.357421875 l 1
EndSplineSet
EndChar

StartChar: OE
Encoding: 338 338 135
Width: 841
Flags: W
HStem: -4.91797 21G<93.2899 454.452> -4.58301 122.032<530.751 805.088> 4 120.27<530.751 729.269> 4.59375 124.918<189.102 450.706> 86.8223 33.1777<90.1436 168.917> 299 124<457.876 744.008> 307 123.878<421.544 703.132> 595.594 124.918<291.748 449.452> 599.13 123.878<538.544 763.132> 603.008 128<538.544 814.008> 716 20G<93.3024 454.706>
VStem: 88.8896 89.3975<611.082 654.439> 90.1436 78.7734<86.8223 120> 394 136.751<124.27 391.158> 407 131.544<335.85 599.13>
LayerCount: 2
Fore
SplineSet
94.1435546875 736 m 1x0030
 454.706054688 720.51171875 l 1
 449.452148438 595.59375 l 1x0110
 88.8896484375 611.08203125 l 1
 94.1435546875 736 l 1x0030
454.452148438 4.59375 m 1x1008
 93.8896484375 -4.91796875 l 1
 90.1435546875 120 l 5x8808
 450.706054688 129.51171875 l 5
 454.452148438 4.59375 l 1x1008
35 88.568359375 m 1
 44.3701171875 656.185546875 l 1
 178.287109375 654.439453125 l 1x0810
 168.916992188 86.822265625 l 1
 35 88.568359375 l 1
EndSplineSet
Refer: 5 69 N 1 0 0 1 359 0 2
EndChar

StartChar: oe
Encoding: 339 339 136
Width: 791
Flags: W
HStem: -3.91797 114.918<117.938 324.071 448.139 720.365> 43.8965 69.5918<323.222 343.815 422.057 448.139> 59.918 55.5703<100.057 172.73> 198.57 102.918<416.41 652.749> 206.082 102.918<438.991 670.227> 405.57 43.668<107.803 158.917 636.016 697.365> 413.082 38.1777<126.915 158.917 332.592 388.365> 506 20G<105.057 386.106 426.664 699.619>
VStem: 100.057 72.6738<62.6641 115.488> 323.222 42.1436<46.6426 108> 332.592 55.7734<413.082 451.26> 424.803 32.7061<408.57 448.514>
LayerCount: 2
Fore
SplineSet
365.365234375 -4.91796875 m 1x21d0
 97.802734375 2.5703125 l 1
 100.056640625 115.48828125 l 1
 367.619140625 108 l 1
 365.365234375 -4.91796875 l 1x21d0
105.056640625 518.48828125 m 1
 385.619140625 526 l 1
 388.365234375 413.08203125 l 1x03b0
 107.802734375 405.5703125 l 1x05b0
 105.056640625 518.48828125 l 1
48.8134765625 59.91796875 m 1x2590
 35 446.4921875 l 1
 158.916992188 449.23828125 l 1
 172.73046875 62.6640625 l 1
 48.8134765625 59.91796875 l 1x2590
323.221679688 46.642578125 m 1x43d0
 332.591796875 451.259765625 l 5x43b0
 457.508789062 448.513671875 l 5
 448.138671875 43.896484375 l 1
 323.221679688 46.642578125 l 1x43d0
413.6640625 301.48828125 m 1x1190
 670.2265625 309 l 1
 672.97265625 206.08203125 l 1x0990
 416.41015625 198.5703125 l 1
 413.6640625 301.48828125 l 1x1190
631 206.231445312 m 1
 636.015625 449.923828125 l 1
 761.9453125 447.924804688 l 1
 756.9296875 204.232421875 l 1
 631 206.231445312 l 1
720.365234375 -3.91796875 m 1x8190
 419.802734375 -1.4296875 l 1
 422.056640625 113.48828125 l 1x4190
 722.619140625 111 l 1
 720.365234375 -3.91796875 l 1x8190
427.056640625 523.48828125 m 1
 699.619140625 518 l 1
 697.365234375 403.08203125 l 1
 424.802734375 408.5703125 l 1
 427.056640625 523.48828125 l 1
EndSplineSet
EndChar

StartChar: paragraph
Encoding: 182 182 137
Width: 652
Flags: W
HStem: 0 21G<232 368 432 568> 235.082 124.918<128.273 344.11> 303.844 63.668<126.375 294.084> 606.09 124.918<368 627> 606.09 94.918<281.834 368> 606.09 47.1846<145.916 281.834>
VStem: 34.4912 333.509<306.59 541.299> 145.916 35.3057<448.074 648.527> 158.166 12.2422<303.844 498.187> 232 136<0 235.082 653.274 701.008> 232 62.084<302.48 502.934> 432 136<0 731.008>
LayerCount: 2
Fore
SplineSet
568 0 m 1x9010
 432 0 l 1
 432 731.0078125 l 1
 568 731.0078125 l 1
 568 0 l 1x9010
294.083984375 302.48046875 m 1x8530
 158.166015625 297.733398438 l 1x84b0
 145.916015625 648.52734375 l 1
 281.833984375 653.274414062 l 1
 294.083984375 302.48046875 l 1x8530
368 0 m 1x8850
 232 0 l 1
 232 701.0078125 l 1
 368 701.0078125 l 1
 368 0 l 1x8850
627 731.0078125 m 5x9010
 627.25390625 606.08984375 l 1
 102.25390625 606.08984375 l 1x8410
 105 731.0078125 l 1
 627 731.0078125 l 5x9010
109.547851562 242.59375 m 1
 112.293945312 367.51171875 l 1xa010
 346.856445312 360 l 1
 344.110351562 235.08203125 l 1xc010
 109.547851562 242.59375 l 1
170.408203125 303.84375 m 1xa090
 34.4912109375 306.58984375 l 1xa210
 45.3046875 669.1640625 l 1
 181.221679688 666.41796875 l 1xa110
 170.408203125 303.84375 l 1xa090
EndSplineSet
EndChar

StartChar: uni01B7
Encoding: 439 439 140
Width: 496
Flags: W
HStem: -0.988281 124.938<26.1162 325.991> 292.279 43.7432<322.011 393.867> 611.222 124.938<47.3711 423.56>
VStem: 325.991 73.7822<74.4736 121.582 292.279 335.648>
LayerCount: 2
Fore
SplineSet
26.1162109375 123.950195312 m 1
 399.7734375 121.58203125 l 1
 399.700195312 -3.3564453125 l 1
 26.04296875 -0.98828125 l 1
 26.1162109375 123.950195312 l 1
457.954101562 336.022460938 m 1
 461.934570312 74.84765625 l 1
 325.991210938 74.4736328125 l 1
 322.010742188 335.6484375 l 1
 457.954101562 336.022460938 l 1
393.8671875 292.279296875 m 1
 106.208984375 294.353515625 l 1
 107.82421875 419.291015625 l 1
 395.482421875 417.216796875 l 1
 393.8671875 292.279296875 l 1
107.82421875 419.291015625 m 1
 313.321289062 643.911132812 l 5
 440.321289062 603.911132812 l 5
 241.82421875 389.291015625 l 1
 107.82421875 419.291015625 l 1
47.37109375 736.159179688 m 1
 441.936523438 728.849609375 l 5
 440.321289062 603.911132812 l 5
 45.755859375 611.221679688 l 1
 47.37109375 736.159179688 l 1
EndSplineSet
EndChar

StartChar: uni0292
Encoding: 658 658 141
Width: 428
Flags: W
HStem: -176.994 114.938<26.6152 267.83> 407.368 114.948<28.2832 388.533>
VStem: 267.83 66.3916<91.0264 143.228> 267.83 50.4082<-117.78 -66.1211>
LayerCount: 2
Fore
SplineSet
316.623046875 -181.05859375 m 1xd0
 25 -176.994140625 l 1
 26.615234375 -62.056640625 l 1
 318.23828125 -66.12109375 l 1
 316.623046875 -181.05859375 l 1xd0
393.830078125 143.227539062 m 1
 393.830078125 -117.780273438 l 1
 267.830078125 -117.780273438 l 1xd0
 267.830078125 143.227539062 l 1xe0
 393.830078125 143.227539062 l 1
73.19140625 197.8984375 m 1
 271.245117188 443.849609375 l 5
 388.923828125 406.072265625 l 5
 197.694335938 170.241210938 l 1
 73.19140625 197.8984375 l 1
334.221679688 91.0263671875 m 1xe0
 73.5830078125 92.9501953125 l 1
 73.19140625 197.8984375 l 1
 333.830078125 195.975585938 l 1
 334.221679688 91.0263671875 l 1xe0
27.892578125 522.31640625 m 1
 388.533203125 521.021484375 l 5
 388.923828125 406.072265625 l 5
 28.283203125 407.368164062 l 1
 27.892578125 522.31640625 l 1
EndSplineSet
EndChar

StartChar: longs
Encoding: 383 383 142
Width: 339
Flags: W
HStem: 0 21G<94.6416 220.642> 418.332 107.843<20.0586 185.371> 624.738 110.041<220.642 366.679> 628.423 57.585<154.612 220.642>
VStem: 94.6416 126<0 418.451 526.39 628.423> 154.612 66.0293<628.423 686.008>
LayerCount: 2
Fore
SplineSet
20.05859375 418.33203125 m 1xc0
 20 526.174804688 l 1
 185.37109375 526.389648438 l 1
 186.974609375 418.451171875 l 1
 20.05859375 418.33203125 l 1xc0
154.612304688 628.422851562 m 1xd4
 157.80859375 738.341796875 l 1
 368.330078125 734.779296875 l 1
 366.678710938 624.73828125 l 1xe4
 154.612304688 628.422851562 l 1xd4
94.6416015625 0 m 1xd8
 94.6416015625 686.0078125 l 1xd8
 220.641601562 686.0078125 l 1xd4
 220.641601562 0 l 1
 94.6416015625 0 l 1xd8
EndSplineSet
EndChar
